<svg width="40" height="40" viewBox="0 0 40 40" fill="none" xmlns="http://www.w3.org/2000/svg">
<path fill-rule="evenodd" clip-rule="evenodd" d="M20 0L19.712 0.5L16.9228 5.3248H19V22.5168L4.1108 31.1128L3.072 29.3136L0 34.6412H0.5764L6.15 34.6444L5.1108 32.8452L20 24.2492L34.8892 32.8452L33.85 34.6444L40 34.6412L39.712 34.1412L36.928 29.3136L35.8892 31.1132L21 22.5172V5.3244H23.0772L20 0Z" fill="#FF004D"/>
<path fill-rule="evenodd" clip-rule="evenodd" d="M19.6233 10.9084L7.92493 18.58C7.65533 18.7748 7.58293 18.9964 7.57812 19.198V30.662C7.57812 30.914 7.70933 31.1484 7.92493 31.28L19.6233 38.9512C19.9053 39.1052 20.1921 39.0792 20.3825 38.9472L32.0753 31.28C32.1813 31.2154 32.2688 31.1246 32.3295 31.0163C32.3902 30.9081 32.4221 30.7861 32.4221 30.662V19.198C32.4197 18.8924 32.2901 18.7312 32.0641 18.5724L20.3769 10.9084C20.0985 10.7496 19.8801 10.8252 19.6233 10.9084ZM20.0001 12.3724L30.2061 19.1348L19.9937 26.0172L9.69213 19.1976L20.0001 12.3724ZM9.02412 20.4856L19.2769 27.276V37.046L9.02493 30.2556L9.02412 20.4856ZM30.9761 20.4856V30.2552L20.7233 37.0456V27.2752L30.9761 20.4856Z" fill="#FF004D"/>
</svg>
