<svg width="40" height="30" viewBox="0 0 40 30" fill="none" xmlns="http://www.w3.org/2000/svg">
<path d="M32.502 2.50016C31.1758 2.50016 29.904 3.02697 28.9662 3.96471C28.0285 4.90244 27.5017 6.17429 27.5017 7.50045C27.5017 8.8266 28.0285 10.0984 28.9662 11.0362C29.904 11.9739 31.1758 12.5007 32.502 12.5007C33.8281 12.5007 35.1 11.9739 36.0377 11.0362C36.9754 10.0984 37.5023 8.8266 37.5023 7.50045C37.5023 6.17429 36.9754 4.90244 36.0377 3.96471C35.1 3.02697 33.8281 2.50016 32.502 2.50016ZM25.104 6.25037C25.4175 4.39602 26.4161 2.72708 27.902 1.5743C29.388 0.421515 31.2527 -0.130985 33.1268 0.0262873C35.0009 0.18356 36.7475 1.03913 38.0205 2.42344C39.2935 3.80776 40 5.61979 40 7.50045C40 9.3811 39.2935 11.1931 38.0205 12.5775C36.7475 13.9618 35.0009 14.8173 33.1268 14.9746C31.2527 15.1319 29.388 14.5794 27.902 13.4266C26.4161 12.2738 25.4175 10.6049 25.104 8.75052H25.0015C24.0069 8.75052 23.053 9.14563 22.3497 9.84893C21.6464 10.5522 21.2513 11.5061 21.2513 12.5007V17.501C21.2513 19.1587 20.5928 20.7485 19.4206 21.9207C18.2485 23.0929 16.6587 23.7514 15.001 23.7514H14.896C14.5825 25.6057 13.5839 27.2747 12.098 28.4275C10.612 29.5802 8.74727 30.1327 6.8732 29.9755C4.99913 29.8182 3.25253 28.9626 1.97952 27.5783C0.706509 26.194 0 24.382 0 22.5013C0 20.6206 0.706509 18.8086 1.97952 17.4243C3.25253 16.04 4.99913 15.1844 6.8732 15.0272C8.74727 14.8699 10.612 15.4224 12.098 16.5752C13.5839 17.7279 14.5825 19.3969 14.896 21.2512H15.001C15.9956 21.2512 16.9495 20.8561 17.6528 20.1528C18.3561 19.4495 18.7512 18.4956 18.7512 17.501V12.5007C18.7512 10.843 19.4097 9.25323 20.5819 8.08106C21.754 6.90889 23.3438 6.25037 25.0015 6.25037H25.104ZM7.50053 17.501C6.17437 17.501 4.90253 18.0278 3.96479 18.9656C3.02706 19.9033 2.50024 21.1751 2.50024 22.5013C2.50024 23.8275 3.02706 25.0993 3.96479 26.037C4.90253 26.9748 6.17437 27.5016 7.50053 27.5016C8.82669 27.5016 10.0985 26.9748 11.0363 26.037C11.974 25.0993 12.5008 23.8275 12.5008 22.5013C12.5008 21.1751 11.974 19.9033 11.0363 18.9656C10.0985 18.0278 8.82669 17.501 7.50053 17.501Z" fill="#00D1FF"/>
</svg>
