<svg width="400" height="249" viewBox="0 0 400 249" fill="none" xmlns="http://www.w3.org/2000/svg">
<g clip-path="url(#clip0_645_297)">
<g clip-path="url(#clip1_645_297)">
<rect width="400" height="249" fill="white"/>
<rect width="400" height="249" fill="#014590"/>
<rect x="32" y="26" width="337" height="196.132" rx="19" fill="#0E84FF"/>
<g clip-path="url(#clip2_645_297)">
<path d="M282.321 119.52L299.681 201L154.08 196.971L179.84 237.12L87.1604 195.12L80.4404 116.44L90.8004 116.598L282.321 119.52Z" fill="#014590"/>
<path d="M87.1604 195.12L80.4404 116.44L90.8004 116.598L282.321 119.52L299.681 201L154.08 196.971M87.1604 195.12L179.84 237.12L154.08 196.971M87.1604 195.12L154.08 196.971" stroke="black" stroke-width="2"/>
<path d="M92.7598 51.4801L98.3598 117.28L302.2 119.52V33.8401L92.7598 51.4801Z" fill="#0E84FF" stroke="black" stroke-width="2"/>
<path d="M214.916 57.5542C219.24 147.709 154.036 115.606 171.668 59.7166L189.799 61.2136C178.155 101.966 200.444 120.596 196.951 57.5542H214.916Z" fill="white" stroke="#212121" stroke-width="2"/>
<path d="M239.534 57.0552L219.24 58.3859L219.74 110.615L235.541 109.451L239.534 57.0552Z" fill="#00FFC2"/>
<path d="M243.36 70.6948V54.8928H277.625V69.3642L261.158 93.1502H277.625V109.451L243.36 110.616L241.363 95.1461L261.158 69.3642L243.36 70.6948Z" fill="white"/>
<path d="M239.534 57.0552L219.24 58.3859L219.74 110.615L235.541 109.451L239.534 57.0552Z" fill="white" stroke="#212121" stroke-width="2"/>
<path d="M243.36 70.6948V54.8928H277.625V69.3642L261.158 93.1502H277.625V109.451L243.36 110.616L241.363 95.1461L261.158 69.3642L243.36 70.6948Z" stroke="#212121" stroke-width="2"/>
<path d="M126.758 60.5481C103.071 75.186 113.118 115.772 146.885 109.95L149.712 118.932L164.184 109.95L158.861 103.297C180.817 81.3404 156.366 42.2511 126.758 60.5481Z" fill="white" stroke="#212121" stroke-width="2"/>
<path d="M148.048 83.3361C148.048 88.3223 144.599 92.3185 140.397 92.3185C136.195 92.3185 132.745 88.3223 132.745 83.3361C132.745 78.3499 136.195 74.3542 140.397 74.3542C144.599 74.3542 148.048 78.3499 148.048 83.3361Z" fill="#0E84FF" stroke="#212121" stroke-width="2"/>
<path d="M104.237 146.157V145.597H103.677H92.7598V128.752H134.056V144.099H122.307H121.786L121.748 144.619L119.122 180.891L104.237 181.822V146.157Z" fill="white" stroke="black" stroke-width="2"/>
<path d="M152.564 180.891L137.671 181.821V130.555L157.122 129.614L152.564 180.891Z" fill="white" stroke="black" stroke-width="2"/>
<path d="M160.564 182.417V129.023H180.858L188.842 153.641L198.822 127.36H219.781L216.287 184.413H198.822V155.304L191.004 178.259H184.018L178.03 158.132V182.417H160.564Z" fill="white" stroke="#212121" stroke-width="2"/>
<path d="M222.607 182.417L223.938 127.36H259.368L258.203 142.663H242.235L240.738 147.653H253.214L252.049 160.461H240.738V165.617H256.374L255.376 182.417H222.607Z" fill="white" stroke="#212121" stroke-width="2"/>
<path d="M215.68 35.5201L313.96 26.5601" stroke="black" stroke-width="2"/>
<path d="M135.32 41.9601L198.6 36.0801" stroke="black" stroke-width="2"/>
<path d="M118.52 43.92L131.68 42.52" stroke="black" stroke-width="2"/>
<path d="M113.48 44.48L85.4805 47.28L86.3205 55.4" stroke="black" stroke-width="2"/>
<path d="M89.4004 82.5601L92.4804 112.24" stroke="black" stroke-width="2"/>
<path d="M164.44 201.84L245.08 204.64" stroke="black" stroke-width="2"/>
<path d="M293.8 149.2L306.96 208" stroke="black" stroke-width="2"/>
<path d="M306.96 207.44L287.92 206.6" stroke="black" stroke-width="2"/>
<path d="M332.208 18.7995L324.12 12.7834L318.104 20.8713L326.192 26.8874L332.208 18.7995Z" fill="white" stroke="black" stroke-width="2"/>
<path d="M321 140.65L307.232 134.4L313.483 120.632L327.25 126.883L321 140.65Z" fill="#212121" stroke="#0E84FF" stroke-width="3"/>
<path d="M199.708 224.721C198.622 227.115 195.8 228.174 193.407 227.087C191.013 226.001 189.953 223.179 191.04 220.785C192.127 218.392 194.948 217.332 197.342 218.419C199.736 219.506 200.795 222.327 199.708 224.721Z" fill="white" stroke="black" stroke-width="3"/>
<path d="M85.0051 41.9265C83.2791 45.7283 78.7979 47.411 74.9961 45.685C71.1943 43.959 69.5115 39.4778 71.2375 35.676C72.9635 31.8742 77.4447 30.1914 81.2465 31.9175C85.0483 33.6435 86.7311 38.1247 85.0051 41.9265Z" fill="#0E84FF" stroke="black" stroke-width="3"/>
</g>
</g>
</g>
<defs>
<clipPath id="clip0_645_297">
<rect width="400" height="249" rx="22" fill="white"/>
</clipPath>
<clipPath id="clip1_645_297">
<rect width="400" height="249" fill="white"/>
</clipPath>
<clipPath id="clip2_645_297">
<rect width="266" height="226.8" fill="white" transform="translate(67 12)"/>
</clipPath>
</defs>
</svg>
