<svg width="22" height="23" viewBox="0 0 22 23" fill="none" xmlns="http://www.w3.org/2000/svg">
<path d="M1.40892 21.076L8.37043 14.1145M17.1369 11.0188L15.053 17.2704C15.0197 17.3706 14.9628 17.4613 14.887 17.5348C14.8112 17.6083 14.7188 17.6624 14.6176 17.6926L1.84319 21.4895C1.72811 21.5237 1.60585 21.5256 1.48972 21.4952C1.3736 21.4647 1.26806 21.4029 1.18459 21.3167C1.10112 21.2304 1.04292 21.1228 1.01632 21.0058C0.989713 20.8887 0.995731 20.7666 1.03372 20.6527L5.18174 8.21079C5.21147 8.12145 5.26007 8.03956 5.32424 7.97067C5.38842 7.90178 5.46666 7.8475 5.55366 7.81152L11.4464 5.38527C11.5662 5.33579 11.698 5.3229 11.8251 5.3482C11.9523 5.37351 12.069 5.43589 12.1608 5.52748L16.9782 10.3472C17.0644 10.4333 17.1249 10.5418 17.1529 10.6604C17.181 10.7791 17.1754 10.9032 17.1369 11.0188Z" stroke="white" stroke-width="1.5" stroke-linecap="round" stroke-linejoin="round"/>
<path d="M17.2661 10.6337L20.3596 7.53912C20.7697 7.12886 21.0001 6.57249 21.0001 5.99237C21.0001 5.41225 20.7697 4.85588 20.3596 4.44561L18.0405 2.12437C17.8374 1.92113 17.5961 1.7599 17.3307 1.6499C17.0652 1.53989 16.7806 1.48328 16.4932 1.48328C16.2058 1.48328 15.9213 1.53989 15.6558 1.6499C15.3903 1.7599 15.1491 1.92113 14.9459 2.12437L11.8524 5.21899M10.6907 11.7933C10.5383 11.6409 10.3573 11.5201 10.1582 11.4377C9.95912 11.3552 9.74573 11.3129 9.53023 11.3129C9.31474 11.313 9.10136 11.3554 8.90229 11.438C8.70322 11.5205 8.52235 11.6414 8.37 11.7938C8.21766 11.9462 8.09683 12.1271 8.01441 12.3263C7.93199 12.5254 7.8896 12.7388 7.88965 12.9543C7.8897 13.1698 7.93219 13.3831 8.01471 13.5822C8.09722 13.7813 8.21814 13.9621 8.37055 14.1145C8.67837 14.4222 9.09579 14.5949 9.53101 14.5948C9.96622 14.5947 10.3836 14.4218 10.6912 14.1139C10.9989 13.8061 11.1717 13.3887 11.1716 12.9535C11.1715 12.5183 10.9985 12.1009 10.6907 11.7933Z" stroke="white" stroke-width="1.5" stroke-linecap="round" stroke-linejoin="round"/>
</svg>
