<svg width="40" height="39" viewBox="0 0 40 39" fill="none" xmlns="http://www.w3.org/2000/svg">
<path d="M10.6465 38.1568L0 27.5103L10.6465 16.8638L12.5942 18.8446L3.92847 27.5103L12.5942 36.1761L10.6465 38.1568ZM6.24484 13.7552H3.49381V4.44567C3.49381 3.17836 3.91839 2.12105 4.76754 1.27373C5.61669 0.42641 6.674 0.00183402 7.93948 0H32.0633C33.3288 0 34.3851 0.424576 35.2325 1.27373C36.0798 2.12288 36.5044 3.18019 36.5062 4.44567V13.7552H33.7552V9.62861H6.24484V13.7552ZM6.24484 6.87758H33.7552V4.44292C33.7552 4.02109 33.5791 3.6332 33.227 3.27923C32.8748 2.92526 32.486 2.7492 32.0605 2.75103H7.93948C7.51582 2.75103 7.12701 2.9271 6.77304 3.27923C6.41907 3.63136 6.24301 4.02017 6.24484 4.44567V6.87758ZM29.3535 38.1568L27.4058 36.1761L36.0715 27.5103L27.4058 18.8446L29.3535 16.8638L40 27.5103L29.3535 38.1568Z" fill="#00D1FF"/>
<path d="M25.3691 20.8195L14.0003 32.6988" stroke="#00D1FF" stroke-width="2"/>
</svg>
