<svg width="351" height="352" viewBox="0 0 351 352" fill="none" xmlns="http://www.w3.org/2000/svg">
<g clip-path="url(#clip0_659_59)">
<path d="M306.82 2.09998H43.6198C2.31982 2.09998 2.31982 2.09998 2.31982 43.4V308C2.31982 349.3 2.31982 349.3 43.6198 349.3H306.82C348.12 349.3 348.12 349.3 348.12 308V43.4C348.12 2.09998 348.12 2.09998 306.82 2.09998Z" stroke="#00D1FF" stroke-width="3"/>
<path d="M88.644 80.528V124.88L132.996 80.528H88.644Z" fill="#00D1FF"/>
<path d="M73.0195 155.792L129.286 99.344H175.696L124.358 155.792H73.0195Z" fill="#FF004D" stroke="#FF004D" stroke-miterlimit="10"/>
<path d="M166.932 127.568V166.544L253.732 80.528H210.332L166.932 122.192V127.568Z" fill="#00D1FF"/>
<path d="M106.563 237.776L150.411 194.264L281.283 64.4" fill="#FF004D"/>
<path d="M150.9 196.58L149 308.572L197.3 255.82V149" fill="#FF004D"/>
<path d="M210 135H274V91H258.576" fill="#FF004D"/>
<path d="M122.02 174.3C122.02 173.14 121.08 172.2 119.92 172.2C118.76 172.2 117.82 173.14 117.82 174.3C117.82 175.46 118.76 176.4 119.92 176.4C121.08 176.4 122.02 175.46 122.02 174.3Z" fill="#FF004D" stroke="#FF004D" stroke-miterlimit="10"/>
<path d="M115.42 170.1C115.42 168.94 114.48 168 113.32 168C112.16 168 111.22 168.94 111.22 170.1C111.22 171.26 112.16 172.2 113.32 172.2C114.48 172.2 115.42 171.26 115.42 170.1Z" fill="#FF004D" stroke="#FF004D" stroke-miterlimit="10"/>
<path d="M95.4197 213.1C95.4197 211.94 94.4795 211 93.3197 211C92.1599 211 91.2197 211.94 91.2197 213.1C91.2197 214.26 92.1599 215.2 93.3197 215.2C94.4795 215.2 95.4197 214.26 95.4197 213.1Z" fill="#FF004D" stroke="#FF004D" stroke-miterlimit="10"/>
<path d="M87.4197 197.1C87.4197 195.94 86.4795 195 85.3197 195C84.1599 195 83.2197 195.94 83.2197 197.1C83.2197 198.26 84.1599 199.2 85.3197 199.2C86.4795 199.2 87.4197 198.26 87.4197 197.1Z" fill="#FF004D" stroke="#FF004D" stroke-miterlimit="10"/>
<path d="M78.4197 223.1C78.4197 221.94 77.4795 221 76.3197 221C75.1599 221 74.2197 221.94 74.2197 223.1C74.2197 224.26 75.1599 225.2 76.3197 225.2C77.4795 225.2 78.4197 224.26 78.4197 223.1Z" fill="#FF004D" stroke="#FF004D" stroke-miterlimit="10"/>
<path d="M65.4197 232.1C65.4197 230.94 64.4795 230 63.3197 230C62.1599 230 61.2197 230.94 61.2197 232.1C61.2197 233.26 62.1599 234.2 63.3197 234.2C64.4795 234.2 65.4197 233.26 65.4197 232.1Z" fill="#FF004D" stroke="#FF004D" stroke-miterlimit="10"/>
<path d="M93.4197 224.1C93.4197 222.94 92.4795 222 91.3197 222C90.1599 222 89.2197 222.94 89.2197 224.1C89.2197 225.26 90.1599 226.2 91.3197 226.2C92.4795 226.2 93.4197 225.26 93.4197 224.1Z" fill="#FF004D" stroke="#FF004D" stroke-miterlimit="10"/>
<path d="M101.02 186.9C101.02 185.74 100.08 184.8 98.9198 184.8C97.76 184.8 96.8198 185.74 96.8198 186.9C96.8198 188.06 97.76 189 98.9198 189C100.08 189 101.02 188.06 101.02 186.9Z" fill="#FF004D" stroke="#FF004D" stroke-miterlimit="10"/>
<path d="M129.02 188.3C129.02 187.14 128.08 186.2 126.92 186.2C125.76 186.2 124.82 187.14 124.82 188.3C124.82 189.46 125.76 190.4 126.92 190.4C128.08 190.4 129.02 189.46 129.02 188.3Z" fill="#FF004D" stroke="#FF004D" stroke-miterlimit="10"/>
<path d="M108.02 174.3C108.02 173.14 107.08 172.2 105.92 172.2C104.76 172.2 103.82 173.14 103.82 174.3C103.82 175.46 104.76 176.4 105.92 176.4C107.08 176.4 108.02 175.46 108.02 174.3Z" fill="#FF004D" stroke="#FF004D" stroke-miterlimit="10"/>
<path d="M77.5002 200.508C77.5002 199.735 76.8734 199.108 76.1002 199.108C75.327 199.108 74.7002 199.735 74.7002 200.508C74.7002 201.281 75.327 201.908 76.1002 201.908C76.8734 201.908 77.5002 201.281 77.5002 200.508Z" fill="#FF004D" stroke="#FF004D" stroke-miterlimit="10"/>
<path d="M112.22 191.1C112.22 189.94 111.279 189 110.12 189C108.96 189 108.02 189.94 108.02 191.1C108.02 192.26 108.96 193.2 110.12 193.2C111.279 193.2 112.22 192.26 112.22 191.1Z" fill="#FF004D" stroke="#FF004D" stroke-miterlimit="10"/>
<path d="M145.82 146.3C145.82 145.14 144.879 144.2 143.72 144.2C142.56 144.2 141.62 145.14 141.62 146.3C141.62 147.46 142.56 148.4 143.72 148.4C144.879 148.4 145.82 147.46 145.82 146.3Z" fill="#FF004D" stroke="#FF004D" stroke-miterlimit="10"/>
<path d="M155.62 168.7C155.62 167.54 154.68 166.6 153.52 166.6C152.36 166.6 151.42 167.54 151.42 168.7C151.42 169.86 152.36 170.8 153.52 170.8C154.68 170.8 155.62 169.86 155.62 168.7Z" fill="#FF004D" stroke="#FF004D" stroke-miterlimit="10"/>
<path d="M145.484 156.1C145.484 154.94 144.543 154 143.384 154C142.224 154 141.284 154.94 141.284 156.1C141.284 157.26 142.224 158.2 143.384 158.2C144.543 158.2 145.484 157.26 145.484 156.1Z" fill="#FF004D" stroke="#FF004D" stroke-miterlimit="10"/>
<path d="M134.62 177.8C134.62 177.027 133.993 176.4 133.22 176.4C132.447 176.4 131.82 177.027 131.82 177.8C131.82 178.573 132.447 179.2 133.22 179.2C133.993 179.2 134.62 178.573 134.62 177.8Z" fill="#FF004D" stroke="#FF004D" stroke-miterlimit="10"/>
<path d="M133.02 169.4C133.02 168.627 132.393 168 131.62 168C130.847 168 130.22 168.627 130.22 169.4C130.22 170.173 130.847 170.8 131.62 170.8C132.393 170.8 133.02 170.173 133.02 169.4Z" fill="#FF004D" stroke="#FF004D" stroke-miterlimit="10"/>
<path d="M141.02 180.4C141.02 179.627 140.393 179 139.62 179C138.847 179 138.22 179.627 138.22 180.4C138.22 181.173 138.847 181.8 139.62 181.8C140.393 181.8 141.02 181.173 141.02 180.4Z" fill="#FF004D" stroke="#FF004D" stroke-miterlimit="10"/>
<path d="M125.02 181.4C125.02 180.627 124.393 180 123.62 180C122.847 180 122.22 180.627 122.22 181.4C122.22 182.173 122.847 182.8 123.62 182.8C124.393 182.8 125.02 182.173 125.02 181.4Z" fill="#FF004D" stroke="#FF004D" stroke-miterlimit="10"/>
<path d="M139.02 190.4C139.02 189.627 138.393 189 137.62 189C136.847 189 136.22 189.627 136.22 190.4C136.22 191.173 136.847 191.8 137.62 191.8C138.393 191.8 139.02 191.173 139.02 190.4Z" fill="#FF004D" stroke="#FF004D" stroke-miterlimit="10"/>
<path d="M114.02 182.4C114.02 181.627 113.393 181 112.62 181C111.847 181 111.22 181.627 111.22 182.4C111.22 183.173 111.847 183.8 112.62 183.8C113.393 183.8 114.02 183.173 114.02 182.4Z" fill="#FF004D" stroke="#FF004D" stroke-miterlimit="10"/>
<path d="M122.02 205.4C122.02 204.627 121.393 204 120.62 204C119.847 204 119.22 204.627 119.22 205.4C119.22 206.173 119.847 206.8 120.62 206.8C121.393 206.8 122.02 206.173 122.02 205.4Z" fill="#FF004D" stroke="#FF004D" stroke-miterlimit="10"/>
<path d="M106.02 198.4C106.02 197.627 105.393 197 104.62 197C103.847 197 103.22 197.627 103.22 198.4C103.22 199.173 103.847 199.8 104.62 199.8C105.393 199.8 106.02 199.173 106.02 198.4Z" fill="#FF004D" stroke="#FF004D" stroke-miterlimit="10"/>
<path d="M127.62 163.436C127.62 162.663 126.993 162.036 126.22 162.036C125.447 162.036 124.82 162.663 124.82 163.436C124.82 164.209 125.447 164.836 126.22 164.836C126.993 164.836 127.62 164.209 127.62 163.436Z" fill="#FF004D" stroke="#FF004D" stroke-miterlimit="10"/>
<path d="M158.42 154.7C158.42 153.54 157.48 152.6 156.32 152.6C155.16 152.6 154.22 153.54 154.22 154.7C154.22 155.86 155.16 156.8 156.32 156.8C157.48 156.8 158.42 155.86 158.42 154.7Z" fill="#FF004D" stroke="#FF004D" stroke-miterlimit="10"/>
<path d="M141.62 165.9C141.62 164.74 140.68 163.8 139.52 163.8C138.36 163.8 137.42 164.74 137.42 165.9C137.42 167.06 138.36 168 139.52 168C140.68 168 141.62 167.06 141.62 165.9Z" fill="#00D1FF" stroke="#00D1FF" stroke-miterlimit="10"/>
<path d="M177.22 140C177.22 137.239 174.981 135 172.22 135C169.458 135 167.22 137.239 167.22 140C167.22 142.761 169.458 145 172.22 145C174.981 145 177.22 142.761 177.22 140Z" fill="#00D1FF" stroke="#1A1721" stroke-width="3.5" stroke-miterlimit="10"/>
<path d="M174.22 160.5C174.22 157.462 171.757 155 168.72 155C165.682 155 163.22 157.462 163.22 160.5C163.22 163.538 165.682 166 168.72 166C171.757 166 174.22 163.538 174.22 160.5Z" fill="#00D1FF" stroke="#1A1721" stroke-width="3.5" stroke-miterlimit="10"/>
<path d="M162.22 162.5C162.22 161.119 161.1 160 159.72 160C158.339 160 157.22 161.119 157.22 162.5C157.22 163.881 158.339 165 159.72 165C161.1 165 162.22 163.881 162.22 162.5Z" fill="#00D1FF" stroke="#1A1721" stroke-miterlimit="10"/>
<path d="M154.22 149.5C154.22 148.119 153.1 147 151.72 147C150.339 147 149.22 148.119 149.22 149.5C149.22 150.881 150.339 152 151.72 152C153.1 152 154.22 150.881 154.22 149.5Z" fill="#00D1FF" stroke="#1A1721" stroke-miterlimit="10"/>
<path d="M169.22 132C169.22 129.239 166.981 127 164.22 127C161.458 127 159.22 129.239 159.22 132C159.22 134.761 161.458 137 164.22 137C166.981 137 169.22 134.761 169.22 132Z" fill="#00D1FF" stroke="#1A1721" stroke-width="3.5" stroke-miterlimit="10"/>
<path d="M184.22 153C184.22 150.239 181.981 148 179.22 148C176.458 148 174.22 150.239 174.22 153C174.22 155.761 176.458 158 179.22 158C181.981 158 184.22 155.761 184.22 153Z" fill="#00D1FF" stroke="#1A1721" stroke-width="3.5" stroke-miterlimit="10"/>
<path d="M181.22 130C181.22 127.239 178.981 125 176.22 125C173.458 125 171.22 127.239 171.22 130C171.22 132.761 173.458 135 176.22 135C178.981 135 181.22 132.761 181.22 130Z" fill="#00D1FF" stroke="#1A1721" stroke-width="3.5" stroke-miterlimit="10"/>
<path d="M174.22 122C174.22 119.239 171.981 117 169.22 117C166.458 117 164.22 119.239 164.22 122C164.22 124.761 166.458 127 169.22 127C171.981 127 174.22 124.761 174.22 122Z" fill="#00D1FF" stroke="#1A1721" stroke-width="3.5" stroke-miterlimit="10"/>
<path d="M174.22 150C174.22 147.239 171.981 145 169.22 145C166.458 145 164.22 147.239 164.22 150C164.22 152.761 166.458 155 169.22 155C171.981 155 174.22 152.761 174.22 150Z" fill="#00D1FF" stroke="#1A1721" stroke-width="3.5" stroke-miterlimit="10"/>
<path d="M162.22 173.5C162.22 172.119 161.1 171 159.72 171C158.339 171 157.22 172.119 157.22 173.5C157.22 174.881 158.339 176 159.72 176C161.1 176 162.22 174.881 162.22 173.5Z" fill="#00D1FF" stroke="#1A1721" stroke-miterlimit="10"/>
<path d="M154.22 159.5C154.22 158.119 153.1 157 151.72 157C150.339 157 149.22 158.119 149.22 159.5C149.22 160.881 150.339 162 151.72 162C153.1 162 154.22 160.881 154.22 159.5Z" fill="#00D1FF" stroke="#1A1721" stroke-miterlimit="10"/>
<path d="M158.22 130.5C158.22 129.119 157.1 128 155.72 128C154.339 128 153.22 129.119 153.22 130.5C153.22 131.881 154.339 133 155.72 133C157.1 133 158.22 131.881 158.22 130.5Z" fill="#00D1FF" stroke="#1A1721" stroke-miterlimit="10"/>
<path d="M165.22 141.5C165.22 140.119 164.1 139 162.72 139C161.339 139 160.22 140.119 160.22 141.5C160.22 142.881 161.339 144 162.72 144C164.1 144 165.22 142.881 165.22 141.5Z" fill="#00D1FF" stroke="#1A1721" stroke-miterlimit="10"/>
<path d="M160.22 137.5C160.22 136.119 159.1 135 157.72 135C156.339 135 155.22 136.119 155.22 137.5C155.22 138.881 156.339 140 157.72 140C159.1 140 160.22 138.881 160.22 137.5Z" fill="#00D1FF" stroke="#1A1721" stroke-miterlimit="10"/>
<path d="M152.22 137.5C152.22 136.119 151.1 135 149.72 135C148.339 135 147.22 136.119 147.22 137.5C147.22 138.881 148.339 140 149.72 140C151.1 140 152.22 138.881 152.22 137.5Z" fill="#00D1FF" stroke="#1A1721" stroke-miterlimit="10"/>
<path d="M155.62 142.8C155.62 142.027 154.993 141.4 154.22 141.4C153.447 141.4 152.82 142.027 152.82 142.8C152.82 143.573 153.447 144.2 154.22 144.2C154.993 144.2 155.62 143.573 155.62 142.8Z" fill="#00D1FF" stroke="#00D1FF" stroke-miterlimit="10"/>
<path d="M163.02 149.4C163.02 148.627 162.393 148 161.62 148C160.847 148 160.22 148.627 160.22 149.4C160.22 150.173 160.847 150.8 161.62 150.8C162.393 150.8 163.02 150.173 163.02 149.4Z" fill="#00D1FF" stroke="#00D1FF" stroke-miterlimit="10"/>
<path d="M146.02 172.4C146.02 171.627 145.393 171 144.62 171C143.847 171 143.22 171.627 143.22 172.4C143.22 173.173 143.847 173.8 144.62 173.8C145.393 173.8 146.02 173.173 146.02 172.4Z" fill="#00D1FF" stroke="#00D1FF" stroke-miterlimit="10"/>
<path d="M162.02 125.4C162.02 124.627 161.393 124 160.62 124C159.847 124 159.22 124.627 159.22 125.4C159.22 126.173 159.847 126.8 160.62 126.8C161.393 126.8 162.02 126.173 162.02 125.4Z" fill="#00D1FF" stroke="#00D1FF" stroke-miterlimit="10"/>
<path d="M136.02 156.4C136.02 155.627 135.393 155 134.62 155C133.847 155 133.22 155.627 133.22 156.4C133.22 157.173 133.847 157.8 134.62 157.8C135.393 157.8 136.02 157.173 136.02 156.4Z" fill="#00D1FF" stroke="#00D1FF" stroke-miterlimit="10"/>
<path d="M148.02 164.4C148.02 163.627 147.393 163 146.62 163C145.847 163 145.22 163.627 145.22 164.4C145.22 165.173 145.847 165.8 146.62 165.8C147.393 165.8 148.02 165.173 148.02 164.4Z" fill="#00D1FF" stroke="#00D1FF" stroke-miterlimit="10"/>
<path d="M155.02 177.4C155.02 176.627 154.393 176 153.62 176C152.847 176 152.22 176.627 152.22 177.4C152.22 178.173 152.847 178.8 153.62 178.8C154.393 178.8 155.02 178.173 155.02 177.4Z" fill="#00D1FF" stroke="#00D1FF" stroke-miterlimit="10"/>
<path d="M148.62 182C148.62 181.227 147.993 180.6 147.22 180.6C146.447 180.6 145.82 181.227 145.82 182C145.82 182.773 146.447 183.4 147.22 183.4C147.993 183.4 148.62 182.773 148.62 182Z" fill="#00D1FF" stroke="#00D1FF" stroke-miterlimit="10"/>
<path d="M17.0197 248.4C17.0197 247.627 16.3929 247 15.6197 247C14.8465 247 14.2197 247.627 14.2197 248.4C14.2197 249.173 14.8465 249.8 15.6197 249.8C16.3929 249.8 17.0197 249.173 17.0197 248.4Z" fill="#00D1FF" stroke="#00D1FF" stroke-miterlimit="10"/>
<path d="M15.1164 221.34C15.1164 220.567 14.4896 219.94 13.7164 219.94C12.9432 219.94 12.3164 220.567 12.3164 221.34C12.3164 222.113 12.9432 222.74 13.7164 222.74C14.4896 222.74 15.1164 222.113 15.1164 221.34Z" fill="#00D1FF" stroke="#00D1FF" stroke-miterlimit="10"/>
<path d="M15.0197 239.4C15.0197 238.627 14.3929 238 13.6197 238C12.8465 238 12.2197 238.627 12.2197 239.4C12.2197 240.173 12.8465 240.8 13.6197 240.8C14.3929 240.8 15.0197 240.173 15.0197 239.4Z" fill="#00D1FF" stroke="#00D1FF" stroke-miterlimit="10"/>
<path d="M136.02 196.7C136.02 195.54 135.08 194.6 133.92 194.6C132.76 194.6 131.82 195.54 131.82 196.7C131.82 197.86 132.76 198.8 133.92 198.8C135.08 198.8 136.02 197.86 136.02 196.7Z" fill="#00D1FF" stroke="#00D1FF" stroke-miterlimit="10"/>
<path d="M91.2195 188.3C91.2195 187.14 90.2793 186.2 89.1195 186.2C87.9597 186.2 87.0195 187.14 87.0195 188.3C87.0195 189.46 87.9597 190.4 89.1195 190.4C90.2793 190.4 91.2195 189.46 91.2195 188.3Z" fill="#00D1FF" stroke="#00D1FF" stroke-miterlimit="10"/>
<path d="M29.4515 207.676C29.4515 206.516 28.5113 205.576 27.3515 205.576C26.1917 205.576 25.2515 206.516 25.2515 207.676C25.2515 208.836 26.1917 209.776 27.3515 209.776C28.5113 209.776 29.4515 208.836 29.4515 207.676Z" fill="#00D1FF" stroke="#00D1FF" stroke-miterlimit="10"/>
<path d="M47.4422 212.38C47.4422 211.22 46.502 210.28 45.3422 210.28C44.1824 210.28 43.2422 211.22 43.2422 212.38C43.2422 213.54 44.1824 214.48 45.3422 214.48C46.502 214.48 47.4422 213.54 47.4422 212.38Z" fill="#00D1FF" stroke="#00D1FF" stroke-miterlimit="10"/>
<path d="M120.62 196.7C120.62 195.54 119.68 194.6 118.52 194.6C117.36 194.6 116.42 195.54 116.42 196.7C116.42 197.86 117.36 198.8 118.52 198.8C119.68 198.8 120.62 197.86 120.62 196.7Z" fill="#00D1FF" stroke="#00D1FF" stroke-miterlimit="10"/>
<path d="M107.74 211.204C107.74 210.044 106.799 209.104 105.64 209.104C104.48 209.104 103.54 210.044 103.54 211.204C103.54 212.364 104.48 213.304 105.64 213.304C106.799 213.304 107.74 212.364 107.74 211.204Z" fill="#00D1FF" stroke="#00D1FF" stroke-miterlimit="10"/>
<path d="M80.6922 212.38C80.6922 211.22 79.752 210.28 78.5922 210.28C77.4324 210.28 76.4922 211.22 76.4922 212.38C76.4922 213.54 77.4324 214.48 78.5922 214.48C79.752 214.48 80.6922 213.54 80.6922 212.38Z" fill="#00D1FF" stroke="#00D1FF" stroke-miterlimit="10"/>
<path d="M94.3426 202.972C94.3426 201.812 93.4024 200.872 92.2426 200.872C91.0828 200.872 90.1426 201.812 90.1426 202.972C90.1426 204.132 91.0828 205.072 92.2426 205.072C93.4024 205.072 94.3426 204.132 94.3426 202.972Z" fill="#00D1FF" stroke="#00D1FF" stroke-miterlimit="10"/>
<path d="M68.5954 202.272C68.5954 201.499 67.9686 200.872 67.1954 200.872C66.4222 200.872 65.7954 201.499 65.7954 202.272C65.7954 203.045 66.4222 203.672 67.1954 203.672C67.9686 203.672 68.5954 203.045 68.5954 202.272Z" fill="#00D1FF" stroke="#00D1FF" stroke-miterlimit="10"/>
<path d="M62.9396 211.68C62.9396 210.907 62.3128 210.28 61.5396 210.28C60.7664 210.28 60.1396 210.907 60.1396 211.68C60.1396 212.453 60.7664 213.08 61.5396 213.08C62.3128 213.08 62.9396 212.453 62.9396 211.68Z" fill="#00D1FF" stroke="#00D1FF" stroke-miterlimit="10"/>
<path d="M47.8469 203.448C47.8469 202.675 47.2201 202.048 46.4469 202.048C45.6737 202.048 45.0469 202.675 45.0469 203.448C45.0469 204.221 45.6737 204.848 46.4469 204.848C47.2201 204.848 47.8469 204.221 47.8469 203.448Z" fill="#00D1FF" stroke="#00D1FF" stroke-miterlimit="10"/>
<path d="M49.6394 222.516C49.6394 221.743 49.0126 221.116 48.2394 221.116C47.4662 221.116 46.8394 221.743 46.8394 222.516C46.8394 223.289 47.4662 223.916 48.2394 223.916C49.0126 223.916 49.6394 223.289 49.6394 222.516Z" fill="#FF004D" stroke="#FF004D" stroke-miterlimit="10"/>
<path d="M38.132 220.164C38.132 219.391 37.5052 218.764 36.732 218.764C35.9588 218.764 35.332 219.391 35.332 220.164C35.332 220.937 35.9588 221.564 36.732 221.564C37.5052 221.564 38.132 220.937 38.132 220.164Z" fill="#FF004D" stroke="#FF004D" stroke-miterlimit="10"/>
<path d="M24.468 232.176C24.468 231.403 23.8412 230.776 23.068 230.776C22.2948 230.776 21.668 231.403 21.668 232.176C21.668 232.949 22.2948 233.576 23.068 233.576C23.8412 233.576 24.468 232.949 24.468 232.176Z" fill="#00D1FF" stroke="#00D1FF" stroke-miterlimit="10"/>
<path d="M62.5472 222.04C62.5472 220.88 61.607 219.94 60.4472 219.94C59.2874 219.94 58.3472 220.88 58.3472 222.04C58.3472 223.2 59.2874 224.14 60.4472 224.14C61.607 224.14 62.5472 223.2 62.5472 222.04Z" fill="#FF004D" stroke="#FF004D" stroke-miterlimit="10"/>
<path d="M49.8908 236.432C49.8908 235.659 49.264 235.032 48.4908 235.032C47.7176 235.032 47.0908 235.659 47.0908 236.432C47.0908 237.205 47.7176 237.832 48.4908 237.832C49.264 237.832 49.8908 237.205 49.8908 236.432Z" fill="#00D1FF" stroke="#00D1FF" stroke-miterlimit="10"/>
<path d="M34.7985 228.2C34.7985 227.427 34.1717 226.8 33.3985 226.8C32.6253 226.8 31.9985 227.427 31.9985 228.2C31.9985 228.973 32.6253 229.6 33.3985 229.6C34.1717 229.6 34.7985 228.973 34.7985 228.2Z" fill="#00D1FF" stroke="#00D1FF" stroke-miterlimit="10"/>
<path d="M36.591 247.268C36.591 246.495 35.9642 245.868 35.191 245.868C34.4178 245.868 33.791 246.495 33.791 247.268C33.791 248.041 34.4178 248.668 35.191 248.668C35.9642 248.668 36.591 248.041 36.591 247.268Z" fill="#00D1FF" stroke="#00D1FF" stroke-miterlimit="10"/>
<path d="M25.0832 244.916C25.0832 244.143 24.4564 243.516 23.6832 243.516C22.91 243.516 22.2832 244.143 22.2832 244.916C22.2832 245.689 22.91 246.316 23.6832 246.316C24.4564 246.316 25.0832 245.689 25.0832 244.916Z" fill="#00D1FF" stroke="#00D1FF" stroke-miterlimit="10"/>
<path d="M11.4196 256.928C11.4196 256.155 10.7928 255.528 10.0196 255.528C9.24643 255.528 8.61963 256.155 8.61963 256.928C8.61963 257.701 9.24643 258.328 10.0196 258.328C10.7928 258.328 11.4196 257.701 11.4196 256.928Z" fill="#00D1FF" stroke="#00D1FF" stroke-miterlimit="10"/>
<path d="M49.4988 246.792C49.4988 245.632 48.5586 244.692 47.3988 244.692C46.239 244.692 45.2988 245.632 45.2988 246.792C45.2988 247.952 46.239 248.892 47.3988 248.892C48.5586 248.892 49.4988 247.952 49.4988 246.792Z" fill="#00D1FF" stroke="#00D1FF" stroke-miterlimit="10"/>
<path d="M19.4197 270.1C19.4197 268.94 18.4795 268 17.3197 268C16.1599 268 15.2197 268.94 15.2197 270.1C15.2197 271.26 16.1599 272.2 17.3197 272.2C18.4795 272.2 19.4197 271.26 19.4197 270.1Z" fill="#00D1FF" stroke="#00D1FF" stroke-miterlimit="10"/>
<path d="M26.4197 278.1C26.4197 276.94 25.4795 276 24.3197 276C23.1599 276 22.2197 276.94 22.2197 278.1C22.2197 279.26 23.1599 280.2 24.3197 280.2C25.4795 280.2 26.4197 279.26 26.4197 278.1Z" fill="#00D1FF" stroke="#00D1FF" stroke-miterlimit="10"/>
<path d="M30.4197 268.1C30.4197 266.94 29.4795 266 28.3197 266C27.1599 266 26.2197 266.94 26.2197 268.1C26.2197 269.26 27.1599 270.2 28.3197 270.2C29.4795 270.2 30.4197 269.26 30.4197 268.1Z" fill="#00D1FF" stroke="#00D1FF" stroke-miterlimit="10"/>
<path d="M28.4197 220.1C28.4197 218.94 27.4795 218 26.3197 218C25.1599 218 24.2197 218.94 24.2197 220.1C24.2197 221.26 25.1599 222.2 26.3197 222.2C27.4795 222.2 28.4197 221.26 28.4197 220.1Z" fill="#00D1FF" stroke="#00D1FF" stroke-miterlimit="10"/>
<path d="M39.4197 238.1C39.4197 236.94 38.4795 236 37.3197 236C36.1599 236 35.2197 236.94 35.2197 238.1C35.2197 239.26 36.1599 240.2 37.3197 240.2C38.4795 240.2 39.4197 239.26 39.4197 238.1Z" fill="#00D1FF" stroke="#00D1FF" stroke-miterlimit="10"/>
<path d="M26.4197 257.1C26.4197 255.94 25.4795 255 24.3197 255C23.1599 255 22.2197 255.94 22.2197 257.1C22.2197 258.26 23.1599 259.2 24.3197 259.2C25.4795 259.2 26.4197 258.26 26.4197 257.1Z" fill="#00D1FF" stroke="#00D1FF" stroke-miterlimit="10"/>
<path d="M40.4197 256.1C40.4197 254.94 39.4795 254 38.3197 254C37.1599 254 36.2197 254.94 36.2197 256.1C36.2197 257.26 37.1599 258.2 38.3197 258.2C39.4795 258.2 40.4197 257.26 40.4197 256.1Z" fill="#00D1FF" stroke="#00D1FF" stroke-miterlimit="10"/>
<path d="M14.4197 291.1C14.4197 289.94 13.4795 289 12.3197 289C11.1599 289 10.2197 289.94 10.2197 291.1C10.2197 292.26 11.1599 293.2 12.3197 293.2C13.4795 293.2 14.4197 292.26 14.4197 291.1Z" fill="#00D1FF" stroke="#00D1FF" stroke-miterlimit="10"/>
<path d="M12.4197 278.1C12.4197 276.94 11.4795 276 10.3197 276C9.15993 276 8.21973 276.94 8.21973 278.1C8.21973 279.26 9.15993 280.2 10.3197 280.2C11.4795 280.2 12.4197 279.26 12.4197 278.1Z" fill="#00D1FF" stroke="#00D1FF" stroke-miterlimit="10"/>
<path d="M13.4197 203.1C13.4197 201.94 12.4795 201 11.3197 201C10.1599 201 9.21973 201.94 9.21973 203.1C9.21973 204.26 10.1599 205.2 11.3197 205.2C12.4795 205.2 13.4197 204.26 13.4197 203.1Z" fill="#00D1FF" stroke="#00D1FF" stroke-miterlimit="10"/>
<path d="M19.4197 211.1C19.4197 209.94 18.4795 209 17.3197 209C16.1599 209 15.2197 209.94 15.2197 211.1C15.2197 212.26 16.1599 213.2 17.3197 213.2C18.4795 213.2 19.4197 212.26 19.4197 211.1Z" fill="#00D1FF" stroke="#00D1FF" stroke-miterlimit="10"/>
<path d="M14.4197 190.1C14.4197 188.94 13.4795 188 12.3197 188C11.1599 188 10.2197 188.94 10.2197 190.1C10.2197 191.26 11.1599 192.2 12.3197 192.2C13.4795 192.2 14.4197 191.26 14.4197 190.1Z" fill="#00D1FF" stroke="#00D1FF" stroke-miterlimit="10"/>
<path d="M23.4197 195.1C23.4197 193.94 22.4795 193 21.3197 193C20.1599 193 19.2197 193.94 19.2197 195.1C19.2197 196.26 20.1599 197.2 21.3197 197.2C22.4795 197.2 23.4197 196.26 23.4197 195.1Z" fill="#00D1FF" stroke="#00D1FF" stroke-miterlimit="10"/>
<path d="M11.4197 230.1C11.4197 228.94 10.4795 228 9.31973 228C8.15993 228 7.21973 228.94 7.21973 230.1C7.21973 231.26 8.15993 232.2 9.31973 232.2C10.4795 232.2 11.4197 231.26 11.4197 230.1Z" fill="#00D1FF" stroke="#00D1FF" stroke-miterlimit="10"/>
</g>
<defs>
<clipPath id="clip0_659_59">
<rect width="350" height="351.4" fill="white" transform="translate(0.219727)"/>
</clipPath>
</defs>
</svg>
