<svg width="42" height="42" viewBox="0 0 42 42" fill="none" xmlns="http://www.w3.org/2000/svg">
<path d="M21 1C9.954 1 1 9.954 1 21C1 32.046 9.954 41 21 41C32.046 41 41 32.046 41 21C41 9.954 32.046 1 21 1Z" stroke="#00D1FF" stroke-width="2" stroke-linecap="round" stroke-linejoin="round"/>
<path d="M13 39.336V25L21 11L29 25V39.336" stroke="#00D1FF" stroke-width="2" stroke-linecap="round" stroke-linejoin="round"/>
<path d="M13 25C13 25 15.254 27 17 27C18.746 27 21 25 21 25C21 25 23.254 27 25 27C26.746 27 29 25 29 25" stroke="#00D1FF" stroke-width="2" stroke-linecap="round" stroke-linejoin="round"/>
</svg>
