<svg width="18" height="18" viewBox="0 0 18 18" fill="none" xmlns="http://www.w3.org/2000/svg">
<path d="M16.5533 0H1.44675C0.648 0 0 0.648 0 1.44675V16.5533C0 17.352 0.648 18 1.44675 18H16.5533C17.352 18 18 17.352 18 16.5533V1.44675C18 0.648 17.352 0 16.5533 0ZM16.5533 16.56C6.47775 16.5578 1.44 16.5555 1.44 16.5533C1.44225 6.47775 1.4445 1.44 1.44675 1.44C11.5223 1.44225 16.56 1.4445 16.56 1.44675C16.5578 11.5223 16.5555 16.56 16.5533 16.56ZM2.6685 6.74775H5.33925V15.3383H2.6685V6.74775ZM4.005 5.57325C4.85775 5.57325 5.553 4.88025 5.553 4.02525C5.553 3.82196 5.51296 3.62067 5.43517 3.43286C5.35737 3.24504 5.24335 3.07439 5.0996 2.93065C4.95586 2.7869 4.78521 2.67288 4.59739 2.59508C4.40958 2.51729 4.20829 2.47725 4.005 2.47725C3.80171 2.47725 3.60042 2.51729 3.41261 2.59508C3.22479 2.67288 3.05414 2.7869 2.9104 2.93065C2.76665 3.07439 2.65263 3.24504 2.57483 3.43286C2.49704 3.62067 2.457 3.82196 2.457 4.02525C2.45475 4.88025 3.14775 5.57325 4.005 5.57325ZM9.68175 11.088C9.68175 9.9675 9.8955 8.883 11.2838 8.883C12.6518 8.883 12.672 10.1633 12.672 11.16V15.3383H15.3405V10.6267C15.3405 8.31375 14.841 6.534 12.1388 6.534C10.8405 6.534 9.96975 7.24725 9.612 7.92225H9.576V6.74775H7.01325V15.3383H9.68175V11.088Z" fill="white"/>
</svg>
