<svg width="400" height="249" viewBox="0 0 400 249" fill="none" xmlns="http://www.w3.org/2000/svg">
<g clip-path="url(#clip0_534_119)">
<rect width="400" height="249" rx="22" fill="white"/>
<rect width="500" height="500" transform="translate(-50 -119)" fill="black"/>
<path d="M205.395 224.15L205.215 221.046C205.095 218.878 204.918 216.498 204.684 213.905C204.668 213.722 204.709 213.585 204.807 213.493C204.898 213.401 205.007 213.352 205.132 213.346C205.257 213.338 205.373 213.381 205.481 213.473C205.588 213.563 205.647 213.703 205.657 213.885C205.715 216.471 205.791 218.623 205.886 220.345L206.132 224.799C206.151 225.132 206.171 225.444 206.193 225.736C206.291 225.242 206.418 224.599 206.573 223.809C206.933 222.068 207.186 220.862 207.331 220.194C207.477 219.529 207.623 218.874 207.77 218.227C208.072 216.892 208.358 215.72 208.627 214.71C208.655 214.595 208.718 214.504 208.817 214.442C208.911 214.379 209.003 214.344 209.094 214.34C209.27 214.33 209.396 214.438 209.471 214.663C209.505 214.753 209.585 214.969 209.712 215.314C209.834 215.663 209.989 216.092 210.176 216.598C210.359 217.112 210.564 217.684 210.793 218.316C211.016 218.953 211.249 219.606 211.491 220.27C211.727 220.935 211.96 221.595 212.19 222.25C212.42 222.905 212.63 223.509 212.82 224.062C212.977 224.518 213.11 224.912 213.219 225.246L213.084 223.115C212.941 220.517 212.797 218.37 212.652 216.675C212.501 214.981 212.415 213.997 212.394 213.722C212.373 213.448 212.378 213.277 212.409 213.213C212.434 213.148 212.471 213.093 212.52 213.05C212.731 212.848 212.95 212.842 213.177 213.03C213.285 213.122 213.34 213.291 213.342 213.54C213.339 213.787 213.341 214.095 213.35 214.461C213.359 214.836 213.373 215.228 213.39 215.642C213.421 216.618 213.459 217.522 213.505 218.353L214.04 226.175C214.054 226.434 214.005 226.618 213.891 226.728C213.778 226.843 213.641 226.904 213.482 226.914C213.181 226.932 212.964 226.759 212.83 226.398C212.816 226.365 212.782 226.263 212.727 226.095C212.667 225.93 212.589 225.712 212.495 225.442C212.4 225.177 212.292 224.867 212.17 224.513C212.042 224.162 211.907 223.785 211.765 223.377C211.623 222.972 211.474 222.546 211.318 222.101C210.776 220.549 210.029 218.425 209.077 215.73C208.723 216.963 208.099 219.751 207.205 224.093C207.03 224.954 206.856 225.832 206.683 226.728C206.603 227.128 206.378 227.339 206.009 227.361C205.861 227.369 205.74 227.3 205.647 227.157C205.548 227.018 205.497 226.812 205.493 226.536C205.494 226.149 205.462 225.356 205.395 224.15Z" fill="white"/>
<path d="M188.111 218.329L188.878 215.39C188.948 215.127 189.009 214.9 189.059 214.713C189.075 214.629 189.091 214.556 189.107 214.496C187.575 214.159 186.551 213.958 186.035 213.89C185.499 213.826 185.191 213.772 185.112 213.731C185.033 213.69 184.969 213.638 184.922 213.576C184.827 213.45 184.796 213.326 184.828 213.205C184.859 213.088 184.944 212.999 185.083 212.937C185.221 212.879 185.391 212.879 185.595 212.935C186.573 213.226 187.469 213.435 188.285 213.563C189.099 213.694 189.557 213.766 189.657 213.776C189.758 213.781 189.847 213.801 189.921 213.834C189.991 213.861 190.051 213.903 190.1 213.962C190.214 214.085 190.242 214.236 190.181 214.416C189.664 215.99 189.147 217.741 188.632 219.671C188.115 221.605 187.79 222.821 187.657 223.316C187.517 223.816 187.392 224.273 187.281 224.687C187.056 225.578 186.91 226.207 186.843 226.578C186.775 226.954 186.71 227.173 186.648 227.235C186.58 227.297 186.509 227.335 186.433 227.355C186.332 227.372 186.214 227.357 186.08 227.303C185.835 227.208 185.503 227.115 185.083 227.022C184.275 226.846 183.721 226.737 183.422 226.7C183.115 226.669 182.923 226.629 182.845 226.584C182.766 226.542 182.705 226.493 182.662 226.437C182.564 226.323 182.532 226.203 182.566 226.075C182.6 225.949 182.682 225.856 182.814 225.798C182.945 225.738 183.105 225.732 183.292 225.779C183.477 225.833 183.675 225.887 183.885 225.945C184.093 226.009 184.317 226.073 184.557 226.137C185.064 226.265 185.509 226.358 185.893 226.412C186.021 225.934 186.152 225.458 186.285 224.985C186.441 224.424 186.599 223.855 186.76 223.278C187.194 221.727 187.51 220.583 187.707 219.843C186.947 219.677 186.383 219.57 186.016 219.524C185.617 219.477 185.378 219.408 185.3 219.315C185.216 219.22 185.19 219.111 185.222 218.991C185.303 218.687 185.655 218.61 186.278 218.759C186.405 218.792 186.519 218.821 186.623 218.844L187.359 219.014L187.897 219.133L188.111 218.329Z" fill="white"/>
<path d="M152 214.592C153.362 212.037 154.32 210.225 154.873 209.156C155.424 208.093 155.83 207.311 156.089 206.81C156.341 206.311 156.581 205.836 156.809 205.384C157.291 204.429 157.618 203.773 157.79 203.416C157.954 203.062 158.069 202.86 158.133 202.809C158.198 202.759 158.267 202.724 158.341 202.706C158.643 202.629 158.869 202.732 159.017 203.014C159.074 203.126 159.09 203.255 159.066 203.402C158.813 204.978 158.59 206.719 158.398 208.623C158.203 210.532 158.06 211.877 157.969 212.66C157.803 214.079 157.632 215.368 157.454 216.527L162.954 205.67C163.037 205.51 163.139 205.414 163.258 205.381C163.378 205.348 163.49 205.361 163.594 205.419C163.693 205.475 163.766 205.569 163.813 205.702C163.852 205.836 163.824 205.988 163.731 206.156C162.946 207.547 162.082 209.152 161.141 210.968L158.761 215.56C158.347 216.361 157.995 217.054 157.705 217.638C157.606 217.828 157.476 217.942 157.316 217.978C157.149 218.018 157.003 218.002 156.879 217.934C156.6 217.778 156.488 217.538 156.54 217.214C156.593 216.891 156.657 216.451 156.734 215.895C156.808 215.342 156.891 214.726 156.982 214.045C157.07 213.368 157.161 212.646 157.257 211.881C157.35 211.121 157.443 210.36 157.536 209.599C157.627 208.844 157.715 208.11 157.801 207.4C157.888 206.689 157.966 206.043 158.036 205.463C158.106 204.882 158.168 204.387 158.22 203.977C158.223 203.959 158.225 203.943 158.225 203.93C157.741 204.964 157.202 206.084 156.609 207.291C155.882 208.755 155.341 209.855 154.986 210.588C154.627 211.319 154.266 212.059 153.903 212.81C153.533 213.561 153.171 214.307 152.819 215.05C152.733 215.214 152.628 215.312 152.504 215.342C152.372 215.376 152.253 215.362 152.149 215.304C152.045 215.246 151.974 215.152 151.938 215.026C151.893 214.902 151.914 214.756 152 214.592Z" fill="white"/>
<path d="M140 104.809H179.362L202.979 129.064L179.362 153.319V145.234L195.106 129.064L179.362 112.894H147.872L155.745 125.021L177.394 120.979V129.064H159.681H151.809L140 104.809Z" fill="white"/>
<path d="M260 104.809H224.67L199.574 123L204.447 127.787L224.67 113.107H252.934L260 104.809Z" fill="white"/>
<path d="M260 153.319H224.67L199.574 135.128L204.447 130.34L224.67 145.021H252.934L260 153.319Z" fill="white"/>
<path d="M146.468 145.66H180V153.319H140L146.468 145.66Z" fill="white"/>
<path d="M143.487 132.891C144.551 129.475 148.637 128.364 151.195 130.797C153.146 132.653 153.301 135.799 151.541 137.824L136.596 155.021L143.487 132.891Z" fill="white"/>
<path d="M213.408 126.043C214.394 124.856 215.907 124.243 217.437 124.41L258.298 128.883L217.65 133.712C215.998 133.908 214.366 133.217 213.353 131.893L213.293 131.815C211.982 130.101 212.029 127.703 213.408 126.043Z" fill="white"/>
<path d="M200 205.234C243.008 205.234 277.873 170.75 277.873 128.213C277.873 85.675 243.008 51.1914 200 51.1914C156.993 51.1914 122.128 85.675 122.128 128.213C122.128 170.75 156.993 205.234 200 205.234Z" stroke="white"/>
<path d="M204.877 28.6974C204.93 28.3382 205.1 28.1786 205.385 28.2187C205.664 28.258 205.831 28.4677 205.884 28.8477C205.944 29.2285 206.018 29.6453 206.108 30.0981C206.198 30.5454 206.296 31.0136 206.404 31.5027C206.646 32.609 206.839 33.5533 206.984 34.3356C207.278 33.773 207.641 33.1131 208.075 32.3558C208.978 30.7559 209.488 29.8175 209.605 29.5405C209.786 29.1089 210.014 28.9123 210.287 28.9508C210.395 28.966 210.483 29.0207 210.551 29.1148C210.625 29.2042 210.652 29.3153 210.632 29.4479C210.613 29.5751 210.531 29.7498 210.387 29.9723C210.249 30.1955 210.059 30.4932 209.817 30.8655C209.581 31.2386 209.327 31.6488 209.057 32.0961C208.439 33.1097 207.816 34.2213 207.187 35.4307C207.788 38.687 208.24 40.8585 208.543 41.9452C208.599 42.1562 208.58 42.3173 208.488 42.4284C208.253 42.7171 208.022 42.758 207.797 42.5514C207.73 42.4912 207.683 42.3829 207.654 42.2265C207.626 42.0645 207.585 41.8329 207.531 41.5319C207.478 41.2253 207.42 40.8927 207.357 40.5339C207.3 40.1761 207.237 39.8003 207.168 39.4068C207.099 39.0078 207.031 38.6088 206.963 38.2098C206.822 37.3998 206.712 36.7524 206.633 36.2672C206.41 36.7099 206.194 37.1449 205.984 37.5727C205.725 38.0949 205.476 38.596 205.235 39.0757C204.594 40.3286 204.183 41.1088 204.003 41.4165C203.83 41.7195 203.688 41.9055 203.579 41.9747C203.475 42.0449 203.375 42.0731 203.278 42.0596C203.187 42.0466 203.111 41.9907 203.05 41.892C202.99 41.7875 202.968 41.6829 202.983 41.5778C202.999 41.4728 203.035 41.3706 203.09 41.2713C203.826 40.0935 204.934 38.0569 206.415 35.1613C206.092 33.3945 205.592 31.3687 204.915 29.0837C204.872 28.9423 204.859 28.8135 204.877 28.6974Z" fill="white"/>
<path d="M230.386 42.7983L229.12 45.572C229.004 45.8215 228.906 46.0345 228.824 46.2112C228.793 46.2915 228.764 46.3601 228.738 46.4172C230.091 47.0042 231 47.3736 231.465 47.5252C231.949 47.6788 232.223 47.7823 232.289 47.8356C232.355 47.8891 232.403 47.9509 232.435 48.0208C232.499 48.161 232.505 48.2883 232.452 48.4025C232.402 48.5116 232.306 48.5856 232.165 48.6245C232.027 48.6581 231.869 48.6301 231.691 48.5405C230.842 48.0912 230.052 47.7359 229.321 47.4753C228.593 47.2094 228.184 47.063 228.093 47.0362C228 47.0145 227.922 46.9806 227.86 46.9348C227.8 46.8965 227.753 46.845 227.718 46.7801C227.636 46.6382 227.64 46.4839 227.73 46.3169C228.506 44.8503 229.316 43.2078 230.158 41.3893C231.003 39.5656 231.534 38.4199 231.751 37.9523C231.975 37.4818 232.178 37.0516 232.358 36.662C232.735 35.8208 232.99 35.223 233.122 34.8684C233.256 34.5086 233.358 34.3031 233.427 34.2519C233.501 34.203 233.575 34.1758 233.649 34.1702C233.746 34.1688 233.852 34.2052 233.966 34.2796C234.174 34.4138 234.464 34.5612 234.834 34.7219C235.549 35.0317 236.041 35.2296 236.31 35.3153C236.588 35.3983 236.758 35.469 236.822 35.5277C236.887 35.581 236.934 35.6391 236.964 35.7015C237.032 35.8313 237.039 35.9559 236.984 36.0754C236.928 36.1949 236.834 36.2727 236.702 36.3086C236.569 36.3446 236.42 36.324 236.256 36.2466C236.095 36.164 235.922 36.0768 235.739 35.9848C235.558 35.8877 235.363 35.7874 235.153 35.6838C234.709 35.4725 234.315 35.3077 233.97 35.1893C233.76 35.6414 233.549 36.0896 233.337 36.5341C233.086 37.0618 232.831 37.5972 232.573 38.1404C231.878 39.5987 231.369 40.6758 231.047 41.3721C231.718 41.6633 232.219 41.8619 232.551 41.9682C232.911 42.0808 233.119 42.1896 233.173 42.2944C233.233 42.4016 233.237 42.5122 233.184 42.6265C233.051 42.9124 232.711 42.9301 232.163 42.6798C232.052 42.6257 231.952 42.5789 231.86 42.5392L231.211 42.2485L230.736 42.0423L230.386 42.7983Z" fill="white"/>
<path d="M257.256 46.203C257.531 46.4252 257.508 46.7304 257.188 47.1185C256.754 47.6451 256.291 48.1969 255.8 48.7741C255.317 49.3504 254.879 49.8733 254.484 50.3427C254.089 50.8119 253.63 51.3594 253.107 51.9847C252.02 53.2847 250.688 54.8815 249.111 56.775C249.993 57.5179 250.879 58.1827 251.77 58.7695C251.947 58.8828 252.045 59.0183 252.066 59.176C252.086 59.3337 252.057 59.4594 251.98 59.553C251.903 59.6468 251.794 59.6965 251.654 59.7022C251.518 59.7036 251.374 59.6359 251.224 59.4995C250.744 59.0438 250.197 58.5866 249.584 58.1279C248.975 57.6728 248.602 57.405 248.466 57.3244C248.33 57.244 248.238 57.1732 248.19 57.1124C248.144 57.0599 248.112 56.9974 248.097 56.9252C248.06 56.7693 248.107 56.6212 248.238 56.4814C249.153 55.481 250.304 54.1397 251.692 52.4578C253.083 50.7712 253.94 49.7276 254.263 49.3268C254.594 48.9253 254.893 48.5534 255.16 48.2117C255.69 47.5323 256.145 46.9034 256.525 46.3251C256.629 46.1713 256.751 46.0917 256.891 46.0858C257.031 46.08 257.153 46.119 257.256 46.203Z" fill="white"/>
<path d="M269.438 69.0629L266.929 70.8593C266.701 71.0201 266.508 71.1574 266.347 71.2712C266.279 71.326 266.219 71.3719 266.167 71.4087C267.026 72.5806 267.615 73.3461 267.936 73.7052C268.271 74.0751 268.453 74.2992 268.482 74.3778C268.511 74.4562 268.521 74.5337 268.513 74.6104C268.495 74.7637 268.435 74.8771 268.331 74.9509C268.231 75.0211 268.112 75.0389 267.971 75.0041C267.835 74.9659 267.714 74.8644 267.608 74.6995C267.111 73.8934 266.616 73.1985 266.124 72.6148C265.636 72.0277 265.361 71.7003 265.297 71.6326C265.228 71.5683 265.179 71.5008 265.148 71.4302C265.117 71.3678 265.103 71.3 265.107 71.2266C265.109 71.0627 265.192 70.9303 265.355 70.829C266.773 69.9315 268.311 68.8969 269.967 67.7252C271.628 66.5503 272.672 65.8122 273.098 65.511C273.532 65.211 273.926 64.9354 274.281 64.6843C275.036 64.1361 275.561 63.74 275.857 63.4957C276.157 63.2481 276.349 63.119 276.435 63.1081C276.523 63.1016 276.601 63.1142 276.667 63.1451C276.751 63.1914 276.823 63.2747 276.882 63.3952C276.992 63.6139 277.164 63.8838 277.4 64.2045C277.853 64.8231 278.173 65.2356 278.36 65.442C278.555 65.6499 278.665 65.7946 278.689 65.8765C278.718 65.955 278.729 66.0285 278.721 66.0971C278.714 66.2436 278.656 66.3555 278.547 66.4326C278.438 66.5094 278.317 66.5311 278.185 66.4977C278.053 66.4643 277.936 66.3737 277.835 66.2262C277.739 66.0754 277.636 65.9153 277.526 65.7457C277.421 65.573 277.305 65.3901 277.179 65.1975C276.907 64.7967 276.653 64.4607 276.418 64.1891C276.007 64.4803 275.596 64.7676 275.185 65.0508C274.699 65.3876 274.206 65.7295 273.706 66.0762C272.361 67.0062 271.372 67.6956 270.737 68.1441C271.163 68.7253 271.491 69.1431 271.72 69.3974C271.971 69.6716 272.093 69.8677 272.086 69.9857C272.083 70.1081 272.029 70.2063 271.925 70.28C271.664 70.4641 271.364 70.3133 271.022 69.8276C270.956 69.7265 270.893 69.6366 270.835 69.5575L270.428 68.9874L270.127 68.5759L269.438 69.0629Z" fill="white"/>
<path d="M281.319 88.9134C281.39 89.1062 281.359 89.2544 281.227 89.358C281.095 89.4618 280.855 89.576 280.51 89.7004C280.164 89.825 279.857 89.9881 279.591 90.1901C279.324 90.3921 279.118 90.6129 278.973 90.8523C278.684 91.3367 278.65 91.8761 278.87 92.4705C279.089 93.065 279.485 93.459 280.056 93.6526C280.632 93.8444 281.336 93.7906 282.167 93.4914C283.277 93.0918 284.093 92.2713 284.613 91.0299C284.761 90.6773 284.903 90.3175 285.039 89.9503C285.177 89.5888 285.326 89.2298 285.485 88.8732C285.644 88.5166 285.841 88.1776 286.076 87.856C286.593 87.152 287.29 86.6425 288.165 86.3273C289.063 86.0041 289.885 86.0045 290.631 86.3287C291.369 86.6493 291.882 87.2004 292.171 87.982C292.419 88.6536 292.394 89.2862 292.095 89.8802C291.748 90.5479 291.104 91.0291 290.164 91.3239C290.117 91.3345 290.069 91.3487 290.019 91.3667C289.971 91.3903 289.874 91.4191 289.728 91.4527C289.585 91.4919 289.438 91.4793 289.288 91.4149C289.145 91.3539 289.051 91.2629 289.007 91.1417C288.964 91.0261 288.98 90.9081 289.056 90.7873C289.137 90.6645 289.272 90.5849 289.46 90.5481C289.894 90.4731 290.214 90.3985 290.42 90.3241C290.632 90.2479 290.819 90.1371 290.98 89.9918C291.143 89.852 291.272 89.6872 291.366 89.4974C291.563 89.0896 291.574 88.649 291.399 88.1758C291.206 87.6528 290.867 87.2914 290.382 87.0916C289.846 86.8731 289.285 86.8691 288.7 87.0798C288.114 87.2906 287.663 87.5246 287.347 87.7818C287.037 88.037 286.775 88.3186 286.56 88.6266C286.347 88.9402 286.169 89.2722 286.027 89.6228C285.885 89.9733 285.747 90.3255 285.612 90.6797C285.48 91.0393 285.337 91.3963 285.183 91.7509C285.036 92.1035 284.85 92.4385 284.626 92.7561C284.114 93.4578 283.415 93.9684 282.528 94.2876C281.49 94.6612 280.564 94.6952 279.75 94.3896C278.943 94.0876 278.377 93.499 278.054 92.6237C277.753 91.8091 277.826 91.0313 278.272 90.2905C278.69 89.5914 279.273 89.1072 280.02 88.8382C280.768 88.569 281.2 88.5942 281.319 88.9134Z" fill="white"/>
<path d="M299.684 113.659C299.698 113.829 299.802 114.917 299.997 116.925C300.019 117.203 299.931 117.402 299.732 117.521C299.676 117.55 299.61 117.568 299.534 117.574C299.457 117.58 299.375 117.541 299.285 117.456C299.203 117.372 299.154 117.205 299.142 116.956C299.13 116.707 299.12 116.464 299.114 116.227C299.11 115.996 299.102 115.78 299.094 115.58C299.078 115.221 299.058 114.915 299.034 114.661C297.682 114.72 296.22 114.812 294.643 114.937C292.956 115.071 291.798 115.162 291.17 115.212C290.55 115.267 289.956 115.323 289.388 115.381C287.936 115.514 286.859 115.618 286.157 115.692C285.959 115.714 285.806 115.677 285.698 115.582C285.597 115.492 285.543 115.387 285.533 115.266C285.525 115.151 285.56 115.032 285.64 114.91C285.725 114.794 285.859 114.728 286.041 114.714L287.192 114.614L295.594 114.039C297.156 113.915 298.282 113.804 298.964 113.707C298.946 113.386 298.906 113.005 298.844 112.565C298.769 112.047 298.715 111.671 298.679 111.436C298.651 111.207 298.677 111.04 298.757 110.936C298.837 110.832 298.934 110.776 299.046 110.767C299.162 110.758 299.281 110.797 299.399 110.885C299.518 110.974 299.58 111.124 299.584 111.337C299.594 111.555 299.602 111.744 299.608 111.902C299.614 112.06 299.618 112.196 299.62 112.312C299.624 112.434 299.626 112.54 299.626 112.631C299.628 112.723 299.628 112.814 299.628 112.905C299.636 113.002 299.644 113.111 299.654 113.232L299.684 113.659Z" fill="white"/>
<path d="M297.972 138.535C297.725 138.485 297.439 138.429 297.114 138.365C296.795 138.31 295.498 138.084 293.228 137.687C290.955 137.291 288.559 136.912 286.039 136.552C285.849 136.526 285.713 136.439 285.631 136.292C285.549 136.151 285.518 136.01 285.539 135.867C285.558 135.732 285.621 135.616 285.725 135.522C285.829 135.434 286.034 135.423 286.34 135.49C286.646 135.556 287.07 135.644 287.612 135.752C288.154 135.86 288.732 135.974 289.346 136.094C290.561 136.333 291.695 136.544 292.747 136.728C293.807 136.912 294.631 137.053 295.216 137.148C295.809 137.252 296.353 137.34 296.852 137.414C297.956 137.586 298.84 137.704 299.504 137.767C299.696 137.781 299.829 137.841 299.905 137.947C299.987 138.06 300.015 138.192 299.993 138.34C299.972 138.489 299.905 138.62 299.79 138.733C299.682 138.847 299.521 138.878 299.304 138.827C299.085 138.783 298.872 138.735 298.66 138.685C298.449 138.641 298.218 138.591 297.972 138.535Z" fill="white"/>
<path d="M294.843 161.534C294.787 161.653 294.683 161.741 294.527 161.797C294.374 161.852 294.112 161.838 293.745 161.753C293.377 161.676 292.852 161.566 292.166 161.423C291.478 161.286 290.74 161.143 289.954 160.995C289.168 160.848 288.355 160.698 287.514 160.546C286.678 160.396 285.863 160.254 285.07 160.122C283.207 159.821 281.837 159.619 280.959 159.517C280.737 159.487 280.587 159.407 280.506 159.28C280.424 159.158 280.405 159.049 280.449 158.955C280.494 158.861 280.564 158.786 280.661 158.731C280.755 158.68 280.961 158.684 281.278 158.742C281.596 158.8 282.11 158.893 282.822 159.022C283.534 159.152 284.298 159.29 285.116 159.439C285.15 159.447 285.182 159.454 285.211 159.46C285.387 159.129 285.62 158.656 285.911 158.04C286.254 157.315 286.505 156.758 286.665 156.367C286.635 156.349 286.605 156.331 286.575 156.313C285.143 155.37 284.03 154.652 283.236 154.158C282.986 153.997 282.912 153.81 283.013 153.597C283.118 153.373 283.301 153.285 283.56 153.331C283.637 153.344 283.739 153.404 283.868 153.509C283.997 153.615 284.224 153.784 284.548 154.016C284.876 154.256 285.252 154.521 285.676 154.811C286.104 155.109 286.571 155.43 287.08 155.772C287.589 156.115 288.112 156.466 288.65 156.827C289.189 157.188 289.73 157.549 290.273 157.912C290.822 158.277 291.352 158.628 291.863 158.966C292.374 159.303 292.854 159.619 293.302 159.914C293.747 160.213 294.1 160.452 294.362 160.629C294.827 160.93 294.987 161.231 294.843 161.534ZM287.345 156.812C287.145 157.18 286.894 157.685 286.591 158.325C286.34 158.856 286.147 159.284 286.013 159.608C286.55 159.702 287.1 159.801 287.663 159.905C288.539 160.066 289.387 160.224 290.208 160.379C291.552 160.629 292.729 160.853 293.741 161.051C293.18 160.686 292.418 160.182 291.458 159.538C290.175 158.686 289.198 158.038 288.527 157.593C288.122 157.329 287.728 157.068 287.345 156.812Z" fill="white"/>
<path d="M282.007 185.474C281.781 185.744 281.475 185.719 281.089 185.399C280.564 184.964 280.014 184.501 279.44 184.01C278.865 183.526 278.345 183.087 277.877 182.692C277.41 182.297 276.864 181.838 276.242 181.314C274.947 180.226 273.356 178.893 271.47 177.315C270.717 178.182 270.042 179.054 269.446 179.93C269.33 180.105 269.194 180.201 269.035 180.22C268.877 180.238 268.751 180.209 268.658 180.132C268.564 180.054 268.515 179.946 268.511 179.808C268.511 179.673 268.58 179.531 268.718 179.384C269.179 178.912 269.643 178.374 270.108 177.771C270.57 177.172 270.842 176.806 270.924 176.671C271.006 176.537 271.078 176.447 271.139 176.4C271.193 176.354 271.255 176.324 271.328 176.309C271.485 176.274 271.633 176.322 271.772 176.452C272.768 177.368 274.104 178.519 275.779 179.908C277.459 181.301 278.499 182.159 278.898 182.482C279.298 182.814 279.669 183.113 280.01 183.38C280.686 183.912 281.314 184.367 281.89 184.748C282.044 184.853 282.123 184.975 282.127 185.113C282.132 185.252 282.092 185.372 282.007 185.474Z" fill="white"/>
<path d="M116.51 163.961L119.417 162.926C119.679 162.835 119.904 162.756 120.09 162.691C120.17 162.657 120.24 162.629 120.3 162.608C119.833 161.189 119.5 160.253 119.302 159.801C119.093 159.333 118.987 159.056 118.983 158.97C118.978 158.883 118.992 158.803 119.022 158.73C119.084 158.583 119.175 158.488 119.295 158.446C119.41 158.406 119.529 158.424 119.651 158.501C119.769 158.579 119.853 158.716 119.905 158.911C120.139 159.86 120.402 160.697 120.697 161.424C120.985 162.152 121.15 162.559 121.191 162.646C121.237 162.73 121.264 162.812 121.271 162.891C121.283 162.962 121.276 163.033 121.251 163.105C121.2 163.267 121.083 163.374 120.899 163.426C119.29 163.894 117.529 164.462 115.615 165.131C113.696 165.802 112.49 166.224 111.998 166.396C111.498 166.564 111.043 166.72 110.633 166.863C109.756 167.182 109.142 167.419 108.79 167.573C108.433 167.729 108.213 167.8 108.129 167.785C108.043 167.765 107.973 167.73 107.92 167.679C107.854 167.608 107.81 167.504 107.789 167.367C107.75 167.117 107.666 166.798 107.538 166.409C107.291 165.66 107.109 165.155 106.993 164.894C106.869 164.629 106.808 164.453 106.809 164.365C106.805 164.278 106.817 164.202 106.844 164.136C106.894 163.993 106.982 163.899 107.108 163.855C107.234 163.811 107.354 163.825 107.47 163.898C107.585 163.971 107.669 164.095 107.721 164.272C107.768 164.45 107.818 164.64 107.872 164.841C107.921 165.044 107.977 165.26 108.04 165.489C108.179 165.968 108.32 166.377 108.463 166.717C108.938 166.551 109.412 166.388 109.885 166.23C110.444 166.04 111.012 165.848 111.588 165.653C113.136 165.131 114.276 164.742 115.009 164.486C114.777 163.781 114.59 163.269 114.448 162.948C114.291 162.601 114.233 162.37 114.274 162.255C114.314 162.134 114.394 162.053 114.514 162.011C114.815 161.906 115.055 162.145 115.236 162.729C115.269 162.85 115.302 162.958 115.333 163.053L115.55 163.74L115.715 164.239L116.51 163.961Z" fill="white"/>
<path d="M100.001 141.822C99.9842 141.495 100.232 141.321 100.745 141.3C101.441 141.271 102.175 141.245 102.948 141.224C103.715 141.197 104.411 141.173 105.036 141.152C105.661 141.132 106.389 141.106 107.221 141.077C108.949 141.015 111.068 140.937 113.58 140.843C113.55 139.777 113.457 138.755 113.301 137.78C113.268 137.588 113.304 137.437 113.411 137.325C113.517 137.213 113.633 137.155 113.756 137.149C113.88 137.144 113.992 137.188 114.091 137.28C114.184 137.373 114.23 137.513 114.227 137.701C114.205 138.314 114.227 138.973 114.292 139.678C114.357 140.378 114.405 140.8 114.436 140.944C114.467 141.088 114.476 141.194 114.461 141.265C114.453 141.33 114.426 141.39 114.382 141.445C114.288 141.567 114.143 141.627 113.948 141.624C112.565 141.618 110.763 141.661 108.54 141.754C106.312 141.847 104.935 141.908 104.411 141.935C103.88 141.957 103.394 141.983 102.953 142.012C102.075 142.07 101.288 142.149 100.59 142.248C100.402 142.272 100.258 142.238 100.159 142.145C100.06 142.053 100.007 141.945 100.001 141.822Z" fill="white"/>
<path d="M109.853 113.994L112.78 114.698C113.044 114.763 113.269 114.818 113.456 114.864C113.539 114.879 113.611 114.894 113.672 114.909C114.027 113.582 114.241 112.695 114.314 112.248C114.386 111.783 114.443 111.516 114.484 111.448C114.526 111.38 114.579 111.325 114.642 111.285C114.769 111.204 114.893 111.178 115.014 111.208C115.129 111.236 115.217 111.311 115.278 111.433C115.334 111.553 115.332 111.702 115.273 111.878C114.971 112.723 114.751 113.5 114.615 114.207C114.472 114.912 114.396 115.309 114.384 115.396C114.378 115.484 114.358 115.56 114.323 115.625C114.295 115.685 114.252 115.736 114.194 115.778C114.068 115.876 113.916 115.898 113.738 115.843C112.172 115.373 110.429 114.902 108.508 114.429C106.581 113.955 105.37 113.657 104.876 113.535C104.378 113.407 103.923 113.292 103.512 113.191C102.625 112.984 101.997 112.849 101.628 112.786C101.253 112.722 101.035 112.662 100.973 112.608C100.913 112.548 100.874 112.485 100.857 112.419C100.84 112.331 100.858 112.229 100.912 112.113C101.01 111.902 101.108 111.614 101.205 111.251C101.392 110.551 101.506 110.071 101.546 109.812C101.582 109.546 101.624 109.379 101.671 109.312C101.713 109.244 101.762 109.192 101.819 109.155C101.935 109.071 102.056 109.045 102.182 109.076C102.308 109.107 102.4 109.18 102.457 109.295C102.514 109.411 102.518 109.549 102.469 109.711C102.414 109.871 102.356 110.042 102.296 110.224C102.23 110.404 102.164 110.598 102.096 110.806C101.962 111.244 101.864 111.629 101.804 111.963C102.282 112.08 102.756 112.2 103.227 112.321C103.785 112.464 104.352 112.609 104.927 112.756C106.471 113.153 107.61 113.442 108.346 113.623C108.522 112.965 108.635 112.477 108.686 112.158C108.737 111.812 108.81 111.606 108.904 111.539C108.999 111.467 109.107 111.446 109.228 111.475C109.53 111.55 109.603 111.857 109.447 112.396C109.412 112.505 109.382 112.605 109.358 112.694L109.179 113.332L109.054 113.797L109.853 113.994Z" fill="white"/>
<path d="M116.357 81.1953C116.685 81.3883 116.777 81.5987 116.632 81.827C116.57 81.9243 116.481 81.9902 116.363 82.0249C116.24 82.0565 116.108 82.0279 115.967 81.9388C114.434 80.9748 113.333 80.7385 112.666 81.2298C112.458 81.3847 112.262 81.635 112.076 81.9806C111.894 82.3213 111.852 82.72 111.952 83.1768C112.049 83.6256 112.274 84.0832 112.627 84.5498C113.286 85.4265 114.387 86.3499 115.93 87.32C119.201 89.3769 121.342 89.9753 122.353 89.1156C122.521 88.9695 122.667 88.7994 122.79 88.6051C123.389 87.6628 122.863 86.527 121.214 85.1976C120.678 84.7722 120.284 84.4837 120.032 84.3319C119.733 84.7489 119.509 85.1113 119.362 85.4194C119.2 85.7597 119.082 85.9882 119.008 86.1047C118.934 86.2212 118.832 86.2899 118.703 86.3107C118.577 86.3264 118.465 86.3036 118.367 86.2422C118.265 86.1777 118.198 86.0845 118.166 85.9625C118.134 85.8405 118.178 85.7121 118.298 85.5767C118.416 85.4336 118.523 85.2867 118.619 85.1362L118.888 84.7136C119.048 84.4609 119.16 84.263 119.224 84.1197C119.335 83.8698 119.426 83.6891 119.497 83.5773C119.657 83.3247 119.881 83.289 120.169 83.4702C121.708 84.4372 122.77 85.4214 123.357 86.4227C123.943 87.4367 123.984 88.3395 123.481 89.1313C122.873 90.0881 121.919 90.4772 120.618 90.2981C119.294 90.112 117.534 89.328 115.337 87.9465C111.617 85.6071 110.326 83.4187 111.463 81.3808C112.367 79.7743 113.999 79.7125 116.357 81.1953Z" fill="white"/>
<path d="M129.991 56.411C130.098 56.3236 130.234 56.2868 130.398 56.3007C130.562 56.3147 130.788 56.4406 131.076 56.6784C131.365 56.9083 131.782 57.2374 132.326 57.6659C132.874 58.091 133.463 58.5415 134.093 59.0176C134.724 59.4938 135.377 59.9841 136.055 60.4885C136.728 60.9884 137.387 61.471 138.031 61.9363C139.548 63.019 140.674 63.797 141.408 64.2699C141.591 64.3941 141.687 64.5331 141.698 64.6869C141.714 64.8372 141.679 64.9469 141.595 65.016C141.51 65.0853 141.411 65.1251 141.299 65.1358C141.191 65.1425 141.009 65.0506 140.754 64.8598C140.498 64.6693 140.084 64.3603 139.511 63.9333C138.939 63.5062 138.323 63.0475 137.665 62.5568C137.639 62.5346 137.614 62.5142 137.59 62.4963C137.276 62.731 136.843 63.0742 136.29 63.526C135.639 64.0581 135.15 64.4729 134.822 64.7708C134.84 64.8006 134.858 64.8302 134.876 64.86C135.704 66.3588 136.354 67.5106 136.826 68.3155C136.973 68.5732 136.95 68.7806 136.758 68.9373C136.558 69.1012 136.353 69.1058 136.144 68.9512C136.082 68.9058 136.019 68.8057 135.954 68.6513C135.889 68.4971 135.768 68.2414 135.589 67.884C135.411 67.5189 135.203 67.1087 134.963 66.6538C134.723 66.1908 134.459 65.6895 134.168 65.1497C133.878 64.6101 133.579 64.0555 133.271 63.4861C132.963 62.9167 132.653 62.345 132.341 61.7713C132.025 61.1931 131.72 60.6361 131.426 60.1C131.131 59.5638 130.854 59.0615 130.595 58.5927C130.34 58.1204 130.138 57.7453 129.99 57.467C129.719 56.9853 129.72 56.6333 129.991 56.411ZM134.427 64.0613C134.781 63.8019 135.245 63.437 135.82 62.967C136.297 62.5771 136.672 62.259 136.946 62.0127C136.512 61.6943 136.069 61.3648 135.617 61.0244C134.912 60.4976 134.232 59.985 133.574 59.4864C132.495 58.6742 131.552 57.9581 130.744 57.3382C131.072 57.9213 131.51 58.7212 132.059 59.7376C132.797 61.0879 133.359 62.1155 133.746 62.8203C133.98 63.2427 134.208 63.6564 134.427 64.0613Z" fill="white"/>
<path d="M157.779 38.7531C158.887 41.2512 159.677 43.0167 160.15 44.0496C160.621 45.0775 160.968 45.8334 161.189 46.3174C161.414 46.7942 161.629 47.2485 161.832 47.6803C162.263 48.5941 162.562 49.2183 162.728 49.5532C162.896 49.8809 162.98 50.0837 162.979 50.162C162.978 50.2401 162.962 50.3128 162.931 50.3799C162.805 50.6554 162.589 50.7695 162.284 50.7218C162.164 50.7018 162.056 50.6409 161.96 50.5389C160.918 49.4468 159.733 48.285 158.405 47.0531C157.074 45.8164 156.14 44.9407 155.603 44.4257C154.626 43.4906 153.752 42.6246 152.981 41.8279L157.865 52.2256C157.936 52.3803 157.947 52.5128 157.899 52.6232C157.851 52.7335 157.773 52.812 157.665 52.8586C157.563 52.9029 157.447 52.9052 157.318 52.8653C157.191 52.8181 157.093 52.7111 157.023 52.5443C156.445 51.1499 155.754 49.5745 154.95 47.8183L152.916 43.38C152.561 42.6065 152.251 41.9427 151.985 41.3882C151.9 41.2037 151.893 41.0395 151.962 40.8959C152.035 40.7452 152.135 40.6419 152.264 40.5865C152.552 40.4622 152.803 40.5123 153.016 40.7368C153.23 40.9614 153.524 41.2615 153.9 41.6374C154.273 42.0082 154.691 42.4225 155.153 42.8805C155.613 43.3334 156.105 43.8145 156.628 44.3239C157.148 44.8285 157.669 45.3329 158.189 45.8373C158.708 46.3368 159.21 46.8222 159.697 47.2934C160.184 47.7644 160.626 48.1922 161.024 48.5763C161.421 48.9605 161.76 49.2895 162.04 49.5633C162.051 49.576 162.062 49.5864 162.072 49.5941C161.583 48.6339 161.061 47.583 160.507 46.4416C159.839 45.0505 159.335 44.0102 158.994 43.3206C158.659 42.6287 158.317 41.9303 157.97 41.2257C157.625 40.5138 157.279 39.8117 156.93 39.1192C156.857 38.9597 156.847 38.8234 156.9 38.7108C156.956 38.5912 157.038 38.508 157.146 38.4614C157.254 38.4148 157.368 38.4135 157.486 38.4579C157.608 38.495 157.706 38.5934 157.779 38.7531Z" fill="white"/>
<path d="M178.298 18L185.957 52.8936" stroke="white"/>
<path d="M129.362 194.17C131.477 194.17 133.192 192.456 133.192 190.341C133.192 188.225 131.477 186.511 129.362 186.511C127.247 186.511 125.532 188.225 125.532 190.341C125.532 192.456 127.247 194.17 129.362 194.17Z" fill="white"/>
<path d="M251.915 211.192C254.03 211.192 255.745 209.286 255.745 206.936C255.745 204.586 254.03 202.681 251.915 202.681C249.8 202.681 248.085 204.586 248.085 206.936C248.085 209.286 249.8 211.192 251.915 211.192Z" fill="white"/>
</g>
<defs>
<clipPath id="clip0_534_119">
<rect width="400" height="249" rx="22" fill="white"/>
</clipPath>
</defs>
</svg>
