<svg width="42" height="42" viewBox="0 0 42 42" fill="none" xmlns="http://www.w3.org/2000/svg">
<path d="M21 6.00164C21 4.67538 20.4731 3.40344 19.5353 2.46564C18.5975 1.52783 17.3256 1.00098 15.9993 1.00098C14.6731 1.00098 13.4011 1.52783 12.4633 2.46564C11.5255 3.40344 10.9987 4.67538 10.9987 6.00164C9.93452 6.00134 8.88943 6.28402 7.97053 6.8207C7.05164 7.35739 6.29198 8.12878 5.76944 9.0558C5.2469 9.98281 4.98027 11.0321 4.99688 12.0961C5.0135 13.1601 5.31276 14.2006 5.86398 15.1109C4.49488 15.3754 3.26059 16.1083 2.37302 17.1838C1.48546 18.2593 1 19.6102 1 21.0046C1 22.3991 1.48546 23.75 2.37302 24.8255C3.26059 25.901 4.49488 26.6339 5.86398 26.8984C5.31327 27.8086 5.01442 28.8489 4.99807 29.9126C4.98172 30.9763 5.24845 32.0253 5.77093 32.952C6.29341 33.8787 7.05286 34.6498 7.97147 35.1864C8.89008 35.723 9.93482 36.0057 10.9987 36.0056C10.9989 37.3319 11.526 38.6037 12.464 39.5413C13.402 40.479 14.6741 41.0056 16.0003 41.0053C17.3266 41.005 18.5984 40.4779 19.536 39.5399C20.4737 38.6019 21.0003 37.3299 21 36.0036" stroke="#FF004D" stroke-width="2" stroke-linecap="round" stroke-linejoin="round"/>
<path d="M21.001 36.0057C21.001 37.3319 21.5278 38.6039 22.4656 39.5417C23.4034 40.4795 24.6754 41.0063 26.0016 41.0063C27.3279 41.0063 28.5998 40.4795 29.5376 39.5417C30.4755 38.6039 31.0023 37.3319 31.0023 36.0057C32.0662 36.0058 33.1109 35.723 34.0295 35.1864C34.9481 34.6498 35.7076 33.8787 36.23 32.952C36.7525 32.0253 37.0193 30.9763 37.0029 29.9126C36.9866 28.8489 36.6877 27.8087 36.137 26.8984C37.5061 26.6339 38.7404 25.901 39.628 24.8255C40.5155 23.75 41.001 22.3991 41.001 21.0047C41.001 19.6102 40.5155 18.2593 39.628 17.1838C38.7404 16.1084 37.5061 15.3754 36.137 15.1109C36.6882 14.2006 36.9875 13.1602 37.0041 12.0962C37.0207 11.0321 36.7541 9.98284 36.2315 9.05582C35.709 8.1288 34.9493 7.35742 34.0304 6.82073C33.1115 6.28404 32.0665 6.00136 31.0023 6.00167C31.0024 5.34497 30.8732 4.69468 30.622 4.08792C30.3709 3.48116 30.0026 2.92982 29.5384 2.46537C29.0741 2.00092 28.5229 1.63246 27.9162 1.38104C27.3096 1.12961 26.6593 1.00013 26.0026 1C24.6764 0.999735 23.4043 1.52633 22.4663 2.46395C21.5284 3.40157 21.0012 4.67341 21.001 5.99967" stroke="#FF004D" stroke-width="2" stroke-linecap="round" stroke-linejoin="round"/>
<path d="M17.974 11.0042V14.9627M10.999 18.0051H15.1036M27.0472 18.0051H31.1517M27.0472 23.9539H31.1517M10.999 23.9539H15.1036M17.974 27.0443V31.0049M24.0248 27.0443V31.0049M24.0068 11.0022V14.9627M17.1058 26.9423H25.0489C25.5794 26.9423 26.0882 26.7316 26.4633 26.3565C26.8384 25.9813 27.0492 25.4726 27.0492 24.9421V16.963C27.0492 16.4325 26.8384 15.9237 26.4633 15.5486C26.0882 15.1735 25.5794 14.9627 25.0489 14.9627H17.1058C16.5753 14.9627 16.0666 15.1735 15.6914 15.5486C15.3163 15.9237 15.1056 16.4325 15.1056 16.963V24.9421C15.1056 25.4726 15.3163 25.9813 15.6914 26.3565C16.0666 26.7316 16.5753 26.9423 17.1058 26.9423Z" stroke="#FF004D" stroke-width="2" stroke-linecap="round" stroke-linejoin="round"/>
</svg>
