<svg width="204" height="116" viewBox="0 0 204 116" fill="none" xmlns="http://www.w3.org/2000/svg">
<rect x="0.589844" width="203.2" height="116" rx="16" fill="white" fill-opacity="0.03"/>
<path d="M65.128 88V79.6H66.412L70.084 85.732H69.412L73.024 79.6H74.308L74.32 88H72.844L72.832 81.916H73.144L70.072 87.04H69.376L66.256 81.916H66.616V88H65.128ZM78.0289 83.092H82.2049V84.376H78.0289V83.092ZM78.1489 86.692H82.8889V88H76.5889V79.6H82.7209V80.908H78.1489V86.692ZM84.628 88V79.6H88.084C88.828 79.6 89.464 79.72 89.992 79.96C90.528 80.2 90.94 80.544 91.228 80.992C91.516 81.44 91.66 81.972 91.66 82.588C91.66 83.204 91.516 83.736 91.228 84.184C90.94 84.624 90.528 84.964 89.992 85.204C89.464 85.436 88.828 85.552 88.084 85.552H85.492L86.188 84.844V88H84.628ZM90.124 88L88 84.952H89.668L91.804 88H90.124ZM86.188 85.012L85.492 84.268H88.012C88.7 84.268 89.216 84.12 89.56 83.824C89.912 83.528 90.088 83.116 90.088 82.588C90.088 82.052 89.912 81.64 89.56 81.352C89.216 81.064 88.7 80.92 88.012 80.92H85.492L86.188 80.152V85.012ZM93.4053 88V79.6H94.6893L99.9573 86.068H99.3213V79.6H100.869V88H99.5853L94.3173 81.532H94.9533V88H93.4053ZM109.041 88.12C108.385 88.12 107.757 88.028 107.157 87.844C106.557 87.652 106.081 87.408 105.729 87.112L106.269 85.9C106.605 86.164 107.021 86.384 107.517 86.56C108.013 86.736 108.521 86.824 109.041 86.824C109.481 86.824 109.837 86.776 110.109 86.68C110.381 86.584 110.581 86.456 110.709 86.296C110.837 86.128 110.901 85.94 110.901 85.732C110.901 85.476 110.809 85.272 110.625 85.12C110.441 84.96 110.201 84.836 109.905 84.748C109.617 84.652 109.293 84.564 108.933 84.484C108.581 84.404 108.225 84.312 107.865 84.208C107.513 84.096 107.189 83.956 106.893 83.788C106.605 83.612 106.369 83.38 106.185 83.092C106.001 82.804 105.909 82.436 105.909 81.988C105.909 81.532 106.029 81.116 106.269 80.74C106.517 80.356 106.889 80.052 107.385 79.828C107.889 79.596 108.525 79.48 109.293 79.48C109.797 79.48 110.297 79.544 110.793 79.672C111.289 79.8 111.721 79.984 112.089 80.224L111.597 81.436C111.221 81.212 110.833 81.048 110.433 80.944C110.033 80.832 109.649 80.776 109.281 80.776C108.849 80.776 108.497 80.828 108.225 80.932C107.961 81.036 107.765 81.172 107.637 81.34C107.517 81.508 107.457 81.7 107.457 81.916C107.457 82.172 107.545 82.38 107.721 82.54C107.905 82.692 108.141 82.812 108.429 82.9C108.725 82.988 109.053 83.076 109.413 83.164C109.773 83.244 110.129 83.336 110.481 83.44C110.841 83.544 111.165 83.68 111.453 83.848C111.749 84.016 111.985 84.244 112.161 84.532C112.345 84.82 112.437 85.184 112.437 85.624C112.437 86.072 112.313 86.488 112.065 86.872C111.825 87.248 111.453 87.552 110.949 87.784C110.445 88.008 109.809 88.12 109.041 88.12ZM116.251 88.084C115.547 88.084 115.003 87.904 114.619 87.544C114.235 87.176 114.043 86.636 114.043 85.924V80.176H115.543V85.888C115.543 86.192 115.619 86.428 115.771 86.596C115.931 86.764 116.151 86.848 116.431 86.848C116.767 86.848 117.047 86.76 117.271 86.584L117.691 87.652C117.515 87.796 117.299 87.904 117.043 87.976C116.787 88.048 116.523 88.084 116.251 88.084ZM112.987 82.84V81.64H117.259V82.84H112.987ZM122.873 88V86.704L122.789 86.428V84.16C122.789 83.72 122.657 83.38 122.393 83.14C122.129 82.892 121.729 82.768 121.193 82.768C120.833 82.768 120.477 82.824 120.125 82.936C119.781 83.048 119.489 83.204 119.249 83.404L118.661 82.312C119.005 82.048 119.413 81.852 119.885 81.724C120.365 81.588 120.861 81.52 121.373 81.52C122.301 81.52 123.017 81.744 123.521 82.192C124.033 82.632 124.289 83.316 124.289 84.244V88H122.873ZM120.857 88.084C120.377 88.084 119.957 88.004 119.597 87.844C119.237 87.676 118.957 87.448 118.757 87.16C118.565 86.864 118.469 86.532 118.469 86.164C118.469 85.804 118.553 85.48 118.721 85.192C118.897 84.904 119.181 84.676 119.573 84.508C119.965 84.34 120.485 84.256 121.133 84.256H122.993V85.252H121.241C120.729 85.252 120.385 85.336 120.209 85.504C120.033 85.664 119.945 85.864 119.945 86.104C119.945 86.376 120.053 86.592 120.269 86.752C120.485 86.912 120.785 86.992 121.169 86.992C121.537 86.992 121.865 86.908 122.153 86.74C122.449 86.572 122.661 86.324 122.789 85.996L123.041 86.896C122.897 87.272 122.637 87.564 122.261 87.772C121.893 87.98 121.425 88.084 120.857 88.084ZM129.166 88.084C128.494 88.084 127.894 87.944 127.366 87.664C126.846 87.376 126.438 86.984 126.142 86.488C125.846 85.992 125.698 85.428 125.698 84.796C125.698 84.156 125.846 83.592 126.142 83.104C126.438 82.608 126.846 82.22 127.366 81.94C127.894 81.66 128.494 81.52 129.166 81.52C129.79 81.52 130.338 81.648 130.81 81.904C131.29 82.152 131.654 82.52 131.902 83.008L130.75 83.68C130.558 83.376 130.322 83.152 130.042 83.008C129.77 82.864 129.474 82.792 129.154 82.792C128.786 82.792 128.454 82.872 128.158 83.032C127.862 83.192 127.63 83.424 127.462 83.728C127.294 84.024 127.21 84.38 127.21 84.796C127.21 85.212 127.294 85.572 127.462 85.876C127.63 86.172 127.862 86.4 128.158 86.56C128.454 86.72 128.786 86.8 129.154 86.8C129.474 86.8 129.77 86.728 130.042 86.584C130.322 86.44 130.558 86.216 130.75 85.912L131.902 86.584C131.654 87.064 131.29 87.436 130.81 87.7C130.338 87.956 129.79 88.084 129.166 88.084ZM134.364 86.572L134.4 84.688L137.748 81.592H139.548L136.704 84.448L135.912 85.108L134.364 86.572ZM133.14 88V79.096H134.64V88H133.14ZM137.976 88L135.636 85.108L136.584 83.908L139.8 88H137.976Z" fill="white"/>
<path d="M72.2632 66.5263C78.4836 66.5263 83.5263 61.4836 83.5263 55.2632C83.5263 49.0427 78.4836 44 72.2632 44C66.0427 44 61 49.0427 61 55.2632C61 61.4836 66.0427 66.5263 72.2632 66.5263Z" stroke="#FF004D"/>
<path d="M85.1578 39.7367C90.7969 39.7367 95.3683 35.1653 95.3683 29.5262C95.3683 23.8871 90.7969 19.3157 85.1578 19.3157C79.5187 19.3157 74.9473 23.8871 74.9473 29.5262C74.9473 35.1653 79.5187 39.7367 85.1578 39.7367Z" stroke="#FF004D"/>
<path d="M131.341 64.9284C125.702 64.9284 121.131 60.357 121.131 54.7178C121.131 49.0787 125.702 44.5073 131.341 44.5073C136.98 44.5073 141.552 49.0787 141.552 54.7178C141.552 60.357 136.98 64.9284 131.341 64.9284Z" stroke="#FF004D"/>
<path d="M116.737 39.7367C111.098 39.7367 106.526 35.1653 106.526 29.5262C106.526 23.8871 111.098 19.3157 116.737 19.3157C122.376 19.3157 126.947 23.8871 126.947 29.5262C126.947 35.1653 122.376 39.7367 116.737 39.7367Z" stroke="#FF004D"/>
<path d="M84.9778 22.3233L84.9469 22.3451C84.429 22.7094 81.6801 24.7752 81.4564 28.9942L81.4564 28.9942C81.3546 30.9113 82.1228 32.4507 82.996 33.565C83.8695 34.6796 84.828 35.3411 85.047 35.4842C85.0475 35.4845 85.0479 35.4848 85.0483 35.4851L85.1002 35.5185L85.2904 35.6409L85.324 35.8646C85.3248 35.8695 85.3255 35.8744 85.3263 35.8794C85.3417 35.8136 85.3575 35.7479 85.3737 35.6823C85.2877 35.6392 85.2225 35.5834 85.1782 35.5389C85.0975 35.458 85.0357 35.3641 84.9889 35.2809C84.8943 35.1128 84.8166 34.9077 84.7557 34.7114C84.6358 34.3252 84.546 33.8576 84.546 33.5614H85.046L84.546 33.5613V33.5611V33.5602L84.546 33.557L84.546 33.5444L84.5461 33.4954L84.5464 33.3101C84.5469 33.1505 84.5477 32.9226 84.5494 32.6492C84.5527 32.1026 84.5595 31.3731 84.5729 30.6431C84.5864 29.9145 84.6066 29.1798 84.6374 28.6249C84.6526 28.3494 84.671 28.1073 84.694 27.9295C84.705 27.8441 84.7196 27.7532 84.7411 27.6755C84.7508 27.6406 84.7701 27.577 84.8074 27.5118L84.8081 27.5107C84.8252 27.4808 84.9609 27.2428 85.2624 27.2438M84.9778 22.3233L85.2624 27.2438M84.9778 22.3233L85.0051 22.2972C85.0359 22.2677 85.0657 22.2385 85.0943 22.2094C85.1365 22.2735 85.1801 22.3354 85.225 22.3941C85.2962 22.5123 85.3954 22.6164 85.4731 22.6943C85.5537 22.7751 85.6532 22.8675 85.7577 22.9646C85.7804 22.9856 85.8032 23.0069 85.8262 23.0283C86.0915 23.2754 86.4203 23.5887 86.7699 24.0021C87.4638 24.8224 88.2521 26.0517 88.7252 27.9179C88.7955 28.2943 88.8748 28.8442 88.8677 29.3602L88.8676 29.3602L88.8677 29.3738C88.8818 30.409 88.6542 31.437 88.1971 32.392C87.7399 33.3473 87.0627 34.2099 86.2058 34.9221L86.2039 34.9237C86.1804 34.9434 86.1579 34.9622 86.1357 34.9806M84.9778 22.3233L86.1357 34.9806M85.2624 27.2438C85.5124 27.2446 85.6446 27.4162 85.673 27.4553C85.7148 27.5128 85.7363 27.5673 85.7451 27.5909C85.7649 27.6443 85.7764 27.6976 85.7832 27.7324C85.7982 27.8093 85.8109 27.9074 85.8221 28.0134C85.8452 28.23 85.8678 28.5321 85.8898 28.8855C85.9338 29.5949 85.9766 30.5375 86.0141 31.4765C86.0516 32.4163 86.0839 33.3558 86.1068 34.0601C86.1183 34.4123 86.1274 34.7059 86.1336 34.9114L86.1357 34.9806M85.2624 27.2438L86.1357 34.9806M85.7849 35.245L85.6435 35.2491L85.785 35.245C85.785 35.245 85.7849 35.245 85.7849 35.245Z" fill="#FF004D" stroke="#FF004D"/>
<mask id="path-8-inside-1_450_543" fill="white">
<path d="M125.94 50.8286V54.5571H129.499V55.3857H125.94V59.1714H129.902V60H125V50H129.902V50.8286H125.94ZM135.139 55.0143L137.987 60H136.939L134.548 55.8286L132.279 60H131.231L134.065 54.9714L131.231 50.0143H132.279L134.656 54.1714L136.952 50.0143H138L135.139 55.0143Z"/>
</mask>
<path d="M125.94 50.8286V54.5571H129.499V55.3857H125.94V59.1714H129.902V60H125V50H129.902V50.8286H125.94ZM135.139 55.0143L137.987 60H136.939L134.548 55.8286L132.279 60H131.231L134.065 54.9714L131.231 50.0143H132.279L134.656 54.1714L136.952 50.0143H138L135.139 55.0143Z" fill="white"/>
<path d="M125.94 50.8286V49.8286H124.94V50.8286H125.94ZM125.94 54.5571H124.94V55.5571H125.94V54.5571ZM129.499 54.5571H130.499V53.5571H129.499V54.5571ZM129.499 55.3857V56.3857H130.499V55.3857H129.499ZM125.94 55.3857V54.3857H124.94V55.3857H125.94ZM125.94 59.1714H124.94V60.1714H125.94V59.1714ZM129.902 59.1714H130.902V58.1714H129.902V59.1714ZM129.902 60V61H130.902V60H129.902ZM125 60H124V61H125V60ZM125 50V49H124V50H125ZM129.902 50H130.902V49H129.902V50ZM129.902 50.8286V51.8286H130.902V50.8286H129.902ZM135.139 55.0143L134.271 54.5177L133.987 55.0138L134.271 55.5102L135.139 55.0143ZM137.987 60V61H139.709L138.855 59.5041L137.987 60ZM136.939 60L136.071 60.4972L136.359 61H136.939V60ZM134.548 55.8286L135.416 55.3313L134.526 53.7779L133.67 55.3506L134.548 55.8286ZM132.279 60V61H132.873L133.157 60.478L132.279 60ZM131.231 60L130.36 59.509L129.519 61H131.231V60ZM134.065 54.9714L134.936 55.4624L135.215 54.9679L134.933 54.4751L134.065 54.9714ZM131.231 50.0143V49.0143H129.507L130.363 50.5106L131.231 50.0143ZM132.279 50.0143L133.147 49.5179L132.859 49.0143H132.279V50.0143ZM134.656 54.1714L133.788 54.6678L134.671 56.2122L135.531 54.655L134.656 54.1714ZM136.952 50.0143V49.0143H136.362L136.077 49.5307L136.952 50.0143ZM138 50.0143L138.868 50.5109L139.724 49.0143H138V50.0143ZM124.94 50.8286V54.5571H126.94V50.8286H124.94ZM125.94 55.5571H129.499V53.5571H125.94V55.5571ZM128.499 54.5571V55.3857H130.499V54.5571H128.499ZM129.499 54.3857H125.94V56.3857H129.499V54.3857ZM124.94 55.3857V59.1714H126.94V55.3857H124.94ZM125.94 60.1714H129.902V58.1714H125.94V60.1714ZM128.902 59.1714V60H130.902V59.1714H128.902ZM129.902 59H125V61H129.902V59ZM126 60V50H124V60H126ZM125 51H129.902V49H125V51ZM128.902 50V50.8286H130.902V50H128.902ZM129.902 49.8286H125.94V51.8286H129.902V49.8286ZM134.271 55.5102L137.118 60.4959L138.855 59.5041L136.008 54.5184L134.271 55.5102ZM137.987 59H136.939V61H137.987V59ZM137.807 59.5028L135.416 55.3313L133.681 56.3258L136.071 60.4972L137.807 59.5028ZM133.67 55.3506L131.4 59.522L133.157 60.478L135.427 56.3065L133.67 55.3506ZM132.279 59H131.231V61H132.279V59ZM132.102 60.491L134.936 55.4624L133.194 54.4805L130.36 59.509L132.102 60.491ZM134.933 54.4751L132.099 49.518L130.363 50.5106L133.197 55.4677L134.933 54.4751ZM131.231 51.0143H132.279V49.0143H131.231V51.0143ZM131.41 50.5107L133.788 54.6678L135.524 53.675L133.147 49.5179L131.41 50.5107ZM135.531 54.655L137.828 50.4979L136.077 49.5307L133.78 53.6879L135.531 54.655ZM136.952 51.0143H138V49.0143H136.952V51.0143ZM137.132 49.5177L134.271 54.5177L136.007 55.5109L138.868 50.5109L137.132 49.5177Z" fill="#FF004D" mask="url(#path-8-inside-1_450_543)"/>
<path d="M72.5264 44.2632L77.7895 36.8948" stroke="#FF004D"/>
<path d="M129.872 44.8124L124.608 36.3914" stroke="#FF004D"/>
<path d="M95.623 29.4348H106.149" stroke="#FF004D"/>
<path d="M70.5847 61.3857L71.9584 62.1366C72.0862 62.2022 72.2269 62.2368 72.3623 62.2368C72.5056 62.2368 72.6471 62.2013 72.7744 62.1355L78.8629 58.8892C79.1052 58.7599 79.2368 58.5314 79.2368 58.3044V52.4267C79.2368 52.1997 79.1052 51.9713 78.8629 51.842L72.7742 48.5955C72.7738 48.5953 72.7735 48.5952 72.7731 48.595C72.6575 48.5344 72.5155 48.5 72.3647 48.5C72.2142 48.5 72.0718 48.5345 71.9573 48.5948C71.957 48.595 71.9568 48.5951 71.9565 48.5952L65.874 51.8363C65.6329 51.9649 65.5 52.1984 65.5 52.4211V58.3044C65.5 58.5314 65.6317 58.7599 65.874 58.8892L67.456 59.7318C67.8162 59.8946 68.0382 59.9655 68.1966 59.9987C68.351 60.0311 68.4622 60.032 68.6351 60.032C69.1185 60.032 69.4303 59.8985 69.6199 59.7143C69.8075 59.5321 69.9404 59.2373 69.9404 58.7806V53.0457H69.8167V58.775C69.8167 59.2121 69.5722 59.6281 69.1567 59.8461C68.7342 60.0677 68.2014 60.056 67.6469 59.8019L67.6333 59.7957L67.6201 59.7886L65.9549 58.9014C65.8504 58.8479 65.7586 58.7672 65.6923 58.6641L65.6912 58.6624C65.6242 58.5573 65.5862 58.4332 65.5868 58.3028M70.5847 61.3857L66.0868 58.3044M70.5847 61.3857C70.5946 61.3807 70.6047 61.3757 70.615 61.3704M70.5847 61.3857L70.615 61.3704M65.5868 58.3028C65.5868 58.3016 65.5869 58.3005 65.5869 58.2994L66.0868 58.3044M65.5868 58.3028V58.3044H66.0868M65.5868 58.3028V52.4267C65.5868 52.1566 65.7411 51.942 65.9435 51.8303L65.95 51.8267L65.95 51.8267L72.0292 48.5877M66.0868 58.3044V52.4267C66.0868 52.3587 66.1237 52.3019 66.1851 52.268L72.2702 49.0259M72.0292 48.5877C72.0255 48.5898 72.0218 48.5919 72.0181 48.5941L72.2702 49.0259M72.0292 48.5877L72.0351 48.5846L72.2702 49.0259M72.0292 48.5877C72.133 48.5297 72.2491 48.5004 72.3654 48.5004C72.4816 48.5004 72.5977 48.5297 72.7015 48.5877M72.2702 49.0259C72.2987 49.0093 72.3317 49.0004 72.3654 49.0004C72.3991 49.0004 72.432 49.0093 72.4605 49.0259M72.4605 49.0259L72.6956 48.5846L72.7015 48.5877M72.4605 49.0259L72.7126 48.5941C72.7089 48.592 72.7052 48.5898 72.7015 48.5877M72.4605 49.0259L78.7848 58.8998M72.7015 48.5877L78.7807 51.8267L78.7873 51.8302L78.7873 51.8303C78.981 51.9372 79.1439 52.1477 79.1439 52.4211V58.3044C79.1439 58.5459 79.0098 58.782 78.7848 58.8998M78.7848 58.8998L78.787 58.8987L78.5518 58.4575M78.7848 58.8998L78.5456 52.268C78.607 52.3019 78.6439 52.3587 78.6439 52.4211V58.3044C78.6439 58.3667 78.607 58.4291 78.5518 58.4575M78.7848 58.8998L72.6958 62.1465L72.685 62.1522L72.6739 62.1575C72.5777 62.2029 72.4722 62.2265 72.3654 62.2265C72.2584 62.2265 72.153 62.2028 72.057 62.1575L72.0435 62.1512L72.0304 62.144L70.615 61.3704M78.7848 58.8998L70.6203 60.9729L70.557 60.8381L70.6213 60.9618L70.6324 60.8244L70.6223 60.9637L70.6242 60.9673L70.6319 60.9821L70.7877 61.2817C70.724 61.3149 70.667 61.3442 70.615 61.3704M78.7848 58.8998C78.7834 58.9006 78.7819 58.9014 78.7804 58.9021L78.5518 58.4575M78.7848 58.8998L78.5518 58.4575M70.6193 61.0052L70.6215 60.9753L70.628 60.9892L70.7696 61.2907C70.7123 61.3176 70.6524 61.3272 70.5961 61.3231L70.6193 61.0052ZM71.7267 57.0333C71.8211 57.3733 72.003 57.6981 72.3819 57.9285C72.4709 57.9826 72.5676 58.0294 72.6724 58.0695C72.3473 57.9681 72.1188 57.8376 71.9593 57.7025C71.7321 57.5102 71.6112 57.2798 71.5579 57.0333H71.7267ZM71.6656 56.7462L71.6658 56.7475L71.6656 56.7462ZM76.2189 57.8399C76.1198 57.9029 76.006 57.9606 75.8773 58.0118C76.0842 57.9084 76.2662 57.7626 76.3943 57.5602C76.5258 57.3524 76.5772 57.1216 76.5772 56.8907C76.5772 56.7694 76.5662 56.5793 76.4557 56.3867C76.3437 56.1914 76.1678 56.0583 75.965 55.9622C75.5875 55.7835 74.9674 55.6659 73.9737 55.5756C73.1404 55.4992 72.5592 55.381 72.1925 55.1786C72.0205 55.0836 71.9122 54.9786 71.8437 54.863C71.7751 54.7473 71.7263 54.5875 71.7263 54.3516C71.7263 53.9631 71.8924 53.6627 72.2361 53.4379C72.3893 53.3377 72.5811 53.2512 72.812 53.1846C72.6552 53.238 72.5194 53.3057 72.4034 53.3885C72.0101 53.6692 71.936 54.0506 71.936 54.3171C71.936 54.4487 71.9484 54.6538 72.0778 54.8502C72.207 55.0462 72.4004 55.1564 72.5894 55.2289C72.9442 55.3648 73.5346 55.4562 74.4632 55.5671C75.4039 55.6843 75.9963 55.8162 76.3535 56.021C76.5176 56.1151 76.614 56.2154 76.6745 56.3251C76.7364 56.4376 76.7807 56.5969 76.7807 56.8392C76.7807 57.2731 76.598 57.599 76.2189 57.8399ZM75.5865 53.3105C75.4327 53.2278 75.2617 53.1676 75.0748 53.1247C75.4428 53.194 75.7248 53.3021 75.9357 53.4388C76.2009 53.6107 76.3835 53.8471 76.4785 54.1855H76.316C76.1837 53.8183 75.9621 53.5127 75.5865 53.3105Z" fill="white" stroke="#FF004D"/>
<mask id="mask0_450_543" style="mask-type:luminance" maskUnits="userSpaceOnUse" x="108" y="21" width="18" height="17">
<path d="M108.815 37.4483V21.6062H124.658V37.4483H108.815Z" fill="white" stroke="white"/>
</mask>
<g mask="url(#mask0_450_543)">
<path d="M113.315 36.7664C113.314 36.7664 113.314 36.7664 113.313 36.7664V36.5284M113.315 36.7664C113.315 36.7663 113.315 36.7663 113.316 36.7663L113.315 36.5284M113.315 36.7664C113.317 36.7664 113.319 36.7663 113.321 36.7663C113.797 36.7643 114.322 36.579 114.846 36.2887C115.381 35.992 115.956 35.5628 116.538 35.022L116.57 34.9926L116.743 34.8315L113.315 36.7664ZM113.313 36.5284C113.314 36.5284 113.314 36.5284 113.315 36.5284M113.313 36.5284C113.103 36.5274 112.938 36.4831 112.806 36.4071C112.804 36.406 112.802 36.4049 112.8 36.4038L112.797 36.402C112.796 36.4017 112.796 36.4015 112.796 36.4012C112.504 36.2327 112.252 35.8411 112.148 35.1349C112.082 34.6881 112.082 34.1511 112.154 33.5448L113.313 36.2664M113.313 36.5284V36.2664M113.315 36.5284L113.313 36.2664M113.315 36.5284C113.317 36.5285 113.319 36.5285 113.321 36.5285C113.681 36.5285 114.142 36.3976 114.684 36.1055C115.212 35.8211 115.788 35.3987 116.379 34.8507C116.389 34.8411 116.399 34.8314 116.41 34.8217L116.58 34.663L116.392 34.4692L116.384 34.4613C116.051 34.1174 115.722 33.7382 115.396 33.3243L114.975 32.7893L114.903 32.698L114.797 32.6825L114.118 32.5844C113.63 32.5137 113.145 32.4204 112.665 32.3047L112.653 32.3019L112.394 32.2394L112.342 32.4686C112.339 32.4824 112.336 32.4962 112.333 32.51C112.252 32.8725 112.193 33.2183 112.154 33.544L113.313 36.2664M112.444 32.0161L112.708 32.0802C112.711 32.0811 112.715 32.082 112.718 32.0829C113.04 32.1609 113.376 32.2303 113.724 32.2902C113.658 32.1875 113.593 32.0838 113.528 31.9791C113.442 31.9629 113.357 31.9459 113.271 31.9281L112.444 32.0161ZM112.444 32.0161L112.444 32.0158L112.444 32.0158L112.444 32.0161ZM117.488 30.2859L117.488 30.286C117.288 30.4865 117.016 30.5992 116.733 30.5993C116.449 30.5993 116.177 30.4867 115.977 30.2862C115.776 30.0857 115.664 29.8138 115.664 29.5302C115.664 29.2468 115.776 28.9749 115.977 28.7744C116.177 28.5739 116.449 28.4612 116.733 28.4611C117.016 28.4611 117.288 28.5738 117.488 28.7741L117.488 28.7742C117.689 28.9747 117.801 29.2466 117.801 29.5302C117.801 29.8138 117.689 30.0856 117.488 30.2859ZM113.847 32.3109L114.19 32.0895L113.847 32.3109Z" fill="#FF004D" stroke="#FF004D"/>
</g>
</svg>
