<svg width="40" height="38" viewBox="0 0 40 38" fill="none" xmlns="http://www.w3.org/2000/svg">
<path d="M9.75 19.75H30.25V23.6H32.25V17.75H21V13.75H19V17.75H7.75V23.6H9.75V19.75Z" fill="#00D1FF"/>
<path d="M15 25H2.5C1.83696 25 1.20107 25.2634 0.732233 25.7322C0.263392 26.2011 0 26.837 0 27.5V35C0 35.663 0.263392 36.2989 0.732233 36.7678C1.20107 37.2366 1.83696 37.5 2.5 37.5H15C15.663 37.5 16.2989 37.2366 16.7678 36.7678C17.2366 36.2989 17.5 35.663 17.5 35V27.5C17.5 26.837 17.2366 26.2011 16.7678 25.7322C16.2989 25.2634 15.663 25 15 25ZM2.5 35V27.5H15V35H2.5Z" fill="#00D1FF"/>
<path d="M37.5 25H25C24.337 25 23.7011 25.2634 23.2322 25.7322C22.7634 26.2011 22.5 26.837 22.5 27.5V35C22.5 35.663 22.7634 36.2989 23.2322 36.7678C23.7011 37.2366 24.337 37.5 25 37.5H37.5C38.163 37.5 38.7989 37.2366 39.2678 36.7678C39.7366 36.2989 40 35.663 40 35V27.5C40 26.837 39.7366 26.2011 39.2678 25.7322C38.7989 25.2634 38.163 25 37.5 25ZM25 35V27.5H37.5V35H25Z" fill="#00D1FF"/>
<path d="M13.75 12.5H26.25C26.913 12.5 27.5489 12.2366 28.0178 11.7678C28.4866 11.2989 28.75 10.663 28.75 10V2.5C28.75 1.83696 28.4866 1.20107 28.0178 0.732233C27.5489 0.263392 26.913 0 26.25 0H13.75C13.087 0 12.4511 0.263392 11.9822 0.732233C11.5134 1.20107 11.25 1.83696 11.25 2.5V10C11.25 10.663 11.5134 11.2989 11.9822 11.7678C12.4511 12.2366 13.087 12.5 13.75 12.5ZM13.75 2.5H26.25V10H13.75V2.5Z" fill="#00D1FF"/>
</svg>
