<svg width="400" height="249" viewBox="0 0 400 249" fill="none" xmlns="http://www.w3.org/2000/svg">
<g clip-path="url(#clip0_645_294)">
<g clip-path="url(#clip1_645_294)">
<rect width="400" height="249" fill="#FFD873"/>
<g clip-path="url(#clip2_645_294)">
<path d="M94.5784 53.6363L264.088 35.0405C270.495 34.3377 276.841 37.3469 281.926 43.0761C287.008 48.8021 290.726 57.1533 291.782 66.7828C292.838 76.4122 291.019 85.3709 287.3 92.0625C283.578 98.7579 278.035 103.071 271.628 103.774L102.119 122.37C95.7124 123.073 89.3656 120.064 84.2811 114.334C79.1994 108.608 75.4812 100.257 74.4248 90.6278C73.3684 80.9983 75.1877 72.0396 78.9071 65.3481C82.6286 58.6527 88.172 54.3391 94.5784 53.6363Z" fill="#FFA030" stroke="black" stroke-width="3"/>
<path d="M304.834 106.941L87.5993 130.773C69.0429 132.808 55.7692 150.585 57.9516 170.479L57.9516 170.479C60.134 190.373 76.9461 204.85 95.5025 202.814L312.737 178.982C331.294 176.947 344.568 159.169 342.385 139.276C340.203 119.382 323.391 104.905 304.834 106.941Z" fill="#FF3D00"/>
<path d="M120.195 102.542C119.428 103.005 118.662 103.373 117.896 103.647C117.132 103.941 116.446 104.174 115.836 104.347C115.123 104.531 114.426 104.671 113.744 104.768C112.999 104.85 112.177 104.806 111.277 104.633C110.398 104.458 109.488 104.098 108.547 103.552C107.604 102.986 106.667 102.189 105.735 101.161C104.801 100.112 103.929 98.7724 103.12 97.1435C102.308 95.4939 101.583 93.4991 100.946 91.1593C100.309 88.8195 99.8146 86.0655 99.4629 82.8975C99.1112 79.7295 99.0217 76.9411 99.1945 74.5323C99.388 72.1212 99.7436 70.038 100.261 68.2827C100.798 66.5043 101.451 65.0273 102.222 63.8518C103.011 62.6532 103.837 61.6916 104.7 60.967C105.561 60.2216 106.413 59.6868 107.257 59.3625C108.12 59.0152 108.873 58.8059 109.514 58.7346C110.117 58.6887 110.714 58.6853 111.305 58.7245C111.814 58.7728 112.349 58.8706 112.91 59.0179C113.492 59.1629 114.011 59.3988 114.467 59.7255L114.538 66.0374C113.926 65.8119 113.355 65.6657 112.823 65.599C112.31 65.5092 111.826 65.4896 111.37 65.5402C110.501 65.6367 109.751 65.961 109.12 66.5131C108.508 67.0422 107.996 67.7174 107.584 68.5387C107.193 69.3577 106.876 70.2733 106.632 71.2856C106.408 72.2956 106.25 73.3193 106.155 74.3569C105.902 76.7956 105.913 79.5403 106.189 82.591C106.587 85.6072 107.186 88.2657 107.986 90.5664C108.327 91.5557 108.716 92.5186 109.156 93.455C109.613 94.3684 110.133 95.1806 110.715 95.8915C111.295 96.5818 111.941 97.1179 112.655 97.4998C113.389 97.8795 114.201 98.0199 115.091 97.9211C116.064 97.8131 117.155 97.3461 118.363 96.5203L120.195 102.542ZM138.339 70.2809C138.544 73.6329 138.797 76.9482 139.098 80.2267C139.397 83.4844 139.729 86.7595 140.094 90.0517C140.31 91.9981 140.524 93.9238 140.735 95.8287C140.968 97.7314 141.223 99.6525 141.501 101.592L135.338 102.433L134.907 98.551C134.398 99.6346 133.791 100.488 133.084 101.111C132.378 101.735 131.685 102.2 131.007 102.505C130.351 102.83 129.776 103.03 129.281 103.106C128.789 103.202 128.501 103.255 128.418 103.264C127.084 103.14 125.934 102.691 124.967 101.918C124.02 101.122 123.214 100.101 122.552 98.8536C121.908 97.5835 121.39 96.1318 120.999 94.4983C120.608 92.8648 120.312 91.1369 120.11 89.3148C119.935 87.7411 119.819 86.1295 119.761 84.4799C119.704 82.8304 119.681 81.2084 119.693 79.614C119.702 77.999 119.739 76.4437 119.804 74.9483C119.866 73.4322 119.94 72.0196 120.025 70.7105L126.81 70.0831C126.759 71.3254 126.709 72.6725 126.661 74.1242C126.633 75.5736 126.619 77.0529 126.619 78.5621C126.64 80.0691 126.682 81.5841 126.746 83.1071C126.829 84.6071 126.945 86.0301 127.095 87.376C127.232 88.6184 127.413 89.7722 127.636 90.8374C127.859 91.9026 128.129 92.8264 128.447 93.6086C128.762 94.3702 129.121 94.9592 129.523 95.3756C129.944 95.7691 130.424 95.9359 130.962 95.8761C131.666 95.798 132.199 95.3091 132.56 94.4096C132.922 93.5101 133.151 92.3632 133.247 90.9691C133.362 89.5519 133.366 87.9794 133.258 86.2516C133.171 84.5215 133.031 82.7867 132.838 81.0474C132.693 79.7429 132.534 78.5029 132.362 77.3272C132.189 76.1516 132.031 75.1002 131.886 74.173C131.704 73.1032 131.53 72.1058 131.365 71.1809L138.339 70.2809ZM161.702 79.3522C161.051 79.5293 160.371 79.7306 159.662 79.956C159.055 80.1492 158.369 80.393 157.605 80.6874C156.841 80.9818 156.081 81.3073 155.324 81.6638C155.416 80.6055 155.451 79.6899 155.428 78.9168C155.423 78.1208 155.385 77.4018 155.314 76.76C155.19 75.6418 154.99 74.7837 154.714 74.1855C154.456 73.5643 154.186 73.1122 153.903 72.8292C153.62 72.5461 153.351 72.3874 153.096 72.3528C152.861 72.316 152.702 72.3022 152.619 72.3114C151.957 72.3849 151.449 72.7242 151.097 73.3293C150.743 73.9136 150.503 74.674 150.376 75.6103C150.247 76.526 150.206 77.5682 150.251 78.7369C150.297 79.9056 150.388 81.1008 150.524 82.3225C150.62 83.1922 150.727 84.0607 150.844 84.928C150.962 85.7954 151.089 86.6616 151.227 87.5266L153.017 99.6846L145.898 100.978C145.344 95.9879 144.793 91.5004 144.246 87.5156C143.717 83.5079 143.244 80.0913 142.825 77.2661C142.333 73.9669 141.871 71.0312 141.439 68.459L147.512 67.376L148.213 70.8512C148.604 69.4662 149.119 68.3505 149.759 67.5039C150.417 66.6343 151.088 65.9729 151.771 65.5198C152.473 65.0436 153.118 64.7204 153.707 64.5502C154.317 64.3777 154.777 64.2742 155.088 64.2398C156.144 64.1225 157.041 64.3688 157.779 64.9785C158.515 65.5676 159.129 66.3694 159.618 67.384C160.108 68.3987 160.486 69.5306 160.75 70.7799C161.035 72.0269 161.243 73.2405 161.374 74.4208C161.478 75.3525 161.546 76.2463 161.578 77.1022C161.628 77.935 161.67 78.685 161.702 79.3522ZM182.698 77.0213C182.047 77.1984 181.367 77.3997 180.658 77.6251C180.051 77.8183 179.365 78.0621 178.601 78.3565C177.837 78.6509 177.077 78.9764 176.32 79.3329C176.412 78.2746 176.447 77.3589 176.424 76.5859C176.419 75.7899 176.381 75.0709 176.31 74.429C176.186 73.3109 175.986 72.4528 175.71 71.8546C175.452 71.2334 175.182 70.7812 174.899 70.4982C174.616 70.2152 174.347 70.0565 174.092 70.0219C173.857 69.9851 173.698 69.9713 173.615 69.9805C172.953 70.054 172.446 70.3933 172.093 70.9984C171.739 71.5827 171.499 72.3431 171.372 73.2794C171.243 74.1951 171.202 75.2373 171.247 76.406C171.293 77.5747 171.384 78.7699 171.52 79.9916C171.616 80.8612 171.723 81.7298 171.84 82.5971C171.958 83.4645 172.085 84.3307 172.223 85.1957L174.013 97.3537L166.894 98.6472C166.34 93.657 165.789 89.1695 165.242 85.1847C164.713 81.1769 164.24 77.7604 163.821 74.9352C163.329 71.636 162.867 68.7003 162.435 66.1281L168.508 65.0451L169.209 68.5203C169.6 67.1353 170.115 66.0196 170.755 65.173C171.413 64.3034 172.084 63.642 172.767 63.1889C173.469 62.7127 174.114 62.3895 174.703 62.2193C175.313 62.0468 175.773 61.9433 176.084 61.9089C177.14 61.7916 178.037 62.0379 178.775 62.6476C179.511 63.2366 180.125 64.0385 180.614 65.0531C181.104 66.0678 181.482 67.1997 181.746 68.449C182.031 69.696 182.239 70.9096 182.37 72.0898C182.474 73.0216 182.542 73.9154 182.574 74.7713C182.624 75.6041 182.666 76.3541 182.698 77.0213ZM204.731 93.0946C202.879 93.971 201.167 94.6012 199.596 94.9853C198.045 95.3671 196.762 95.6143 195.748 95.7269C194.485 95.8671 193.349 95.7416 192.342 95.3504C191.334 94.9592 190.432 94.3886 189.636 93.6385C188.861 92.8861 188.186 91.9968 187.611 90.9707C187.033 89.9238 186.543 88.8149 186.141 87.6438C185.738 86.4727 185.407 85.2832 185.147 84.0754C184.906 82.8445 184.724 81.6804 184.602 80.5829C184.299 77.8497 184.237 75.3098 184.417 72.9631C184.594 70.5958 185.004 68.5275 185.646 66.7584C186.288 64.9892 187.168 63.571 188.286 62.5036C189.402 61.4155 190.737 60.7852 192.29 60.6128C193.573 60.4703 194.779 60.6613 195.906 61.186C197.033 61.7106 198.043 62.5942 198.936 63.8366C199.828 65.0791 200.585 66.7034 201.206 68.7096C201.846 70.6929 202.32 73.0821 202.631 75.8775C202.718 76.6643 202.786 77.4638 202.834 78.2759C202.903 79.0858 202.944 79.9301 202.958 80.809L192.125 83.4894C192.293 84.2463 192.498 84.9572 192.739 85.6221C193.002 86.2847 193.307 86.8691 193.657 87.3753C194.025 87.8585 194.434 88.2324 194.882 88.497C195.331 88.7616 195.855 88.8606 196.456 88.7939C197.574 88.6698 198.685 88.4835 199.789 88.2352C200.891 87.9661 202.043 87.6706 203.244 87.3486L204.731 93.0946ZM191.353 78.23L196.402 76.6948L196.271 75.5145C196.075 73.7545 195.79 72.4132 195.415 71.4906C195.038 70.5473 194.669 69.8651 194.308 69.4441C193.875 68.9471 193.416 68.6836 192.931 68.6536C192.337 68.7824 191.892 69.1148 191.595 69.6509C191.298 70.1869 191.1 70.8587 191.001 71.6662C190.921 72.4507 190.914 73.3318 190.98 74.3096C191.047 75.2874 191.135 76.2733 191.246 77.2671L191.353 78.23ZM220.333 92.0228C220.418 88.6386 220.365 85.2278 220.172 81.7906C219.999 78.3511 219.705 74.7575 219.289 71.0097C219.149 69.7466 218.955 68.7516 218.706 68.0245C218.455 67.2768 218.174 66.7211 217.861 66.3576C217.546 65.9734 217.227 65.7467 216.905 65.6777C216.581 65.5879 216.273 65.5591 215.984 65.5913C215.569 65.6373 215.184 65.7534 214.827 65.9398C214.492 66.1238 214.191 66.4401 213.927 66.8887C213.662 67.3373 213.437 67.9493 213.25 68.7246C213.084 69.4976 212.976 70.5052 212.925 71.7476C212.875 72.9899 212.895 74.4969 212.987 76.2684C213.097 78.0169 213.287 80.1025 213.556 82.5251C213.653 83.3947 213.754 84.3058 213.859 85.2583C213.963 86.1901 214.062 87.0804 214.156 87.9294C214.271 88.776 214.365 89.5307 214.439 90.1933C214.531 90.8328 214.612 91.2849 214.684 91.5495L207.657 92.2667C207.51 90.3755 207.365 88.6937 207.223 87.2213C207.099 85.7258 206.978 84.3558 206.861 83.1111C206.744 81.8665 206.625 80.7058 206.506 79.629C206.405 78.5293 206.296 77.4515 206.178 76.3954C206.073 75.443 205.954 74.4709 205.823 73.4793C205.711 72.4647 205.579 71.3788 205.43 70.2216C205.301 69.062 205.14 67.8012 204.947 66.4392C204.773 65.0542 204.571 63.5254 204.344 61.8528L211.591 60.8596L211.818 64.0414C212.26 62.9234 212.768 62.0181 213.341 61.3257C213.911 60.6125 214.488 60.0454 215.07 59.6245C215.672 59.2012 216.268 58.9045 216.857 58.7343C217.444 58.5434 217.975 58.4215 218.452 58.3686C219.735 58.2261 220.841 58.5541 221.768 59.3525C222.695 60.1509 223.48 61.2691 224.121 62.7071C224.781 64.122 225.31 65.7716 225.708 67.6559C226.106 69.5402 226.419 71.5073 226.646 73.5572C226.812 75.048 226.938 76.5642 227.026 78.1056C227.134 79.6448 227.219 81.1655 227.281 82.6678C227.361 84.1472 227.416 85.5874 227.446 86.9885C227.494 88.3666 227.542 89.6504 227.59 90.8398L220.333 92.0228ZM243.395 63.8373C243.064 63.4968 242.679 63.246 242.242 63.0849C241.805 62.9238 241.374 62.8145 240.948 62.7569C240.523 62.6994 240.133 62.6798 239.778 62.6982C239.422 62.6958 239.171 62.7027 239.026 62.7188C238.405 62.7878 237.876 63.119 237.439 63.7125C237.022 64.3038 236.693 65.1159 236.451 66.1488C236.23 67.1795 236.106 68.4196 236.078 69.869C236.069 71.2954 236.162 72.8886 236.357 74.6486C236.546 76.3465 236.832 77.8868 237.216 79.2696C237.619 80.6293 238.177 81.7831 238.89 82.731C239.6 83.6583 240.496 84.3658 241.578 84.8537C242.659 85.3415 243.982 85.551 245.546 85.4821L245.953 90.845C245.606 90.9255 245.257 90.9956 244.907 91.0554C244.578 91.1129 244.248 91.16 243.917 91.1968C242.136 91.3945 240.568 91.338 239.213 91.0272C237.881 90.7349 236.715 90.2356 235.714 89.5292C234.713 88.8228 233.862 87.9531 233.161 86.92C232.477 85.8639 231.898 84.7021 231.422 83.4344C230.943 82.1459 230.56 80.7736 230.273 79.3172C230.004 77.8379 229.783 76.3217 229.611 74.7688C229.491 73.692 229.38 72.4991 229.276 71.1901C229.191 69.858 229.168 68.519 229.208 67.1731C229.265 65.8042 229.421 64.4664 229.674 63.1597C229.948 61.8506 230.383 60.6704 230.979 59.6191C231.572 58.547 232.365 57.6625 233.357 56.9655C234.367 56.2455 235.628 55.8016 237.139 55.6338C237.802 55.5602 238.449 55.5407 239.082 55.5753C239.715 55.6098 240.299 55.6812 240.835 55.7894C241.369 55.8769 241.832 55.9931 242.226 56.1381C242.617 56.2623 242.903 56.3878 243.085 56.5143L243.395 63.8373ZM264.395 54.7459C265.078 59.1978 265.723 63.6853 266.33 68.2084C266.955 72.7086 267.529 77.3088 268.051 82.0091C268.382 84.9907 268.534 87.4996 268.509 89.5357C268.483 91.5718 268.166 93.242 267.556 94.5464C266.948 95.8716 265.98 96.87 264.65 97.5416C263.322 98.234 261.52 98.7066 259.242 98.9595C258.082 99.0882 256.741 99.1847 255.218 99.249C253.695 99.3133 251.957 99.3281 250.004 99.2934L249.497 92.4638C251.02 92.3995 252.375 92.3329 253.562 92.264C254.749 92.1951 255.739 92.1377 256.53 92.0918C257.469 92.0504 258.28 91.9919 258.963 91.916C259.46 91.8608 259.878 91.7516 260.216 91.5883C260.556 91.4457 260.813 91.2076 260.986 90.874C261.181 90.5588 261.301 90.1263 261.345 89.5764C261.388 89.0266 261.363 88.3272 261.269 87.4782C261.239 87.2091 261.209 86.9399 261.179 86.6707C261.147 86.3808 261.091 86.0622 261.01 85.7148C260.734 86.2485 260.395 86.6844 259.992 87.0226C259.61 87.3585 259.221 87.6322 258.825 87.8438C258.43 88.0554 258.037 88.2038 257.649 88.2889C257.283 88.3924 256.976 88.4579 256.727 88.4855C255.05 88.6717 253.656 88.4806 252.545 87.9123C251.434 87.3439 250.523 86.5018 249.812 85.3859C249.122 84.2677 248.586 82.9333 248.204 81.3826C247.82 79.8112 247.528 78.1248 247.328 76.3234C247.238 75.5158 247.168 74.9786 247.118 74.7117C247.085 74.4218 247.055 74.247 247.028 74.1872C247.021 74.1251 247.019 74.1043 247.021 74.1251C247.021 74.1251 247.02 74.0204 247.018 73.811C247.013 73.5809 246.998 73.1634 246.973 72.5583C246.948 71.9532 246.905 71.0042 246.845 69.7112C246.786 68.4182 246.691 66.7204 246.563 64.6175C246.453 62.4917 246.3 59.7942 246.105 56.5249L253.348 56.3496C253.41 56.3427 253.414 56.7511 253.359 57.5747C253.322 58.3753 253.292 59.5211 253.268 61.0119C253.264 62.4797 253.292 64.2478 253.354 66.3161C253.416 68.3844 253.586 70.6712 253.864 73.1767C254.03 74.6675 254.244 75.9329 254.506 76.9728C254.786 77.9897 255.098 78.8145 255.441 79.4473C255.784 80.08 256.159 80.5309 256.566 80.8001C256.991 81.0464 257.442 81.143 257.919 81.0902C258.747 80.9982 259.359 80.2805 259.755 78.9369C260.148 77.5727 260.187 75.4722 259.873 72.6354C259.852 72.4491 259.819 72.2432 259.773 72.0177C259.745 71.7692 259.696 71.4184 259.624 70.9651C259.571 70.4889 259.483 69.8804 259.359 69.1395C259.235 68.3987 259.063 67.4221 258.845 66.2096C258.645 64.9741 258.395 63.4821 258.096 61.7336C257.816 59.9621 257.465 57.842 257.044 55.3733L264.395 54.7459Z" fill="black"/>
<g filter="url(#filter0_d_645_294)">
<path d="M148.566 181.146C147.802 181.613 147.038 181.985 146.274 182.264C145.512 182.563 144.826 182.8 144.218 182.976C143.506 183.165 142.809 183.309 142.129 183.41C141.384 183.497 140.561 183.457 139.661 183.29C138.781 183.12 137.869 182.765 136.925 182.226C135.978 181.665 135.036 180.874 134.098 179.851C133.158 178.807 132.278 177.474 131.459 175.85C130.637 174.205 129.9 172.214 129.249 169.879C128.598 167.543 128.087 164.792 127.716 161.626C127.346 158.46 127.239 155.672 127.398 153.262C127.577 150.85 127.92 148.765 128.427 147.006C128.953 145.225 129.597 143.744 130.361 142.564C131.143 141.361 131.963 140.394 132.822 139.664C133.678 138.914 134.527 138.374 135.369 138.044C136.23 137.692 136.981 137.478 137.622 137.403C138.225 137.353 138.822 137.346 139.413 137.382C139.922 137.427 140.458 137.522 141.02 137.666C141.603 137.807 142.123 138.04 142.58 138.364L142.69 144.675C142.077 144.454 141.504 144.311 140.973 144.247C140.459 144.161 139.975 144.144 139.519 144.197C138.65 144.299 137.902 144.628 137.275 145.184C136.666 145.716 136.158 146.395 135.751 147.218C135.365 148.04 135.053 148.957 134.815 149.971C134.598 150.982 134.445 152.007 134.357 153.045C134.118 155.485 134.146 158.23 134.44 161.279C134.856 164.293 135.471 166.947 136.285 169.243C136.632 170.231 137.027 171.191 137.472 172.125C137.936 173.035 138.46 173.844 139.047 174.552C139.63 175.239 140.28 175.771 140.996 176.149C141.732 176.524 142.545 176.659 143.434 176.555C144.407 176.441 145.495 175.968 146.698 175.135L148.566 181.146ZM166.624 161.789C166.92 164.313 167.065 166.541 167.061 168.471C167.056 170.401 166.919 172.096 166.649 173.554C166.398 174.988 166.026 176.206 165.535 177.208C165.063 178.186 164.497 178.997 163.838 179.641C163.2 180.282 162.48 180.764 161.679 181.089C160.878 181.413 160.043 181.627 159.174 181.728C158.305 181.83 157.456 181.835 156.627 181.743C155.819 181.649 155.045 181.394 154.304 180.977C153.563 180.561 152.853 179.962 152.174 179.182C151.516 178.399 150.913 177.368 150.365 176.09C149.817 174.811 149.321 173.265 148.878 171.45C148.455 169.633 148.098 167.482 147.808 164.999C147.371 161.275 147.283 158.191 147.542 155.749C147.822 153.304 148.327 151.346 149.057 149.876C149.785 148.386 150.687 147.315 151.764 146.665C152.839 145.993 153.977 145.588 155.177 145.447C155.943 145.357 156.718 145.351 157.503 145.426C158.306 145.479 159.076 145.693 159.812 146.068C160.569 146.441 161.295 146.996 161.989 147.733C162.684 148.469 163.325 149.464 163.912 150.717C164.497 151.949 165.021 153.471 165.485 155.284C165.949 157.096 166.329 159.265 166.624 161.789ZM159.98 162.819C159.748 160.832 159.485 159.217 159.192 157.971C158.897 156.705 158.582 155.714 158.246 154.999C157.911 154.283 157.552 153.811 157.168 153.583C156.783 153.335 156.383 153.235 155.969 153.283C155.493 153.339 155.103 153.594 154.8 154.049C154.494 154.484 154.27 155.16 154.125 156.079C154.002 156.995 153.961 158.164 154.001 159.586C154.039 160.987 154.176 162.691 154.411 164.698C154.649 166.726 154.918 168.404 155.221 169.732C155.541 171.037 155.883 172.077 156.247 172.852C156.629 173.605 157.025 174.125 157.436 174.412C157.868 174.697 158.302 174.814 158.736 174.763C159.647 174.657 160.198 173.638 160.392 171.706C160.585 169.775 160.448 166.812 159.98 162.819ZM184.266 177.563C184.331 174.178 184.257 170.768 184.043 167.332C183.851 163.894 183.535 160.302 183.096 156.557C182.948 155.294 182.748 154.3 182.495 153.575C182.24 152.829 181.955 152.275 181.64 151.913C181.323 151.531 181.003 151.306 180.68 151.239C180.355 151.151 180.048 151.124 179.758 151.158C179.344 151.207 178.96 151.325 178.604 151.513C178.269 151.7 177.971 152.018 177.709 152.468C177.447 152.918 177.225 153.531 177.044 154.308C176.883 155.082 176.78 156.09 176.737 157.333C176.694 158.575 176.724 160.082 176.826 161.853C176.947 163.601 177.149 165.685 177.432 168.106C177.534 168.975 177.641 169.886 177.752 170.837C177.861 171.769 177.965 172.658 178.065 173.507C178.185 174.353 178.284 175.107 178.361 175.769C178.457 176.408 178.541 176.859 178.614 177.124L171.592 177.883C171.434 175.993 171.279 174.312 171.128 172.84C170.995 171.346 170.866 169.976 170.741 168.732C170.616 167.488 170.491 166.328 170.365 165.253C170.257 164.153 170.142 163.076 170.018 162.021C169.907 161.069 169.782 160.098 169.645 159.107C169.527 158.093 169.389 157.008 169.233 155.852C169.097 154.693 168.929 153.433 168.727 152.072C168.544 150.688 168.334 149.161 168.096 147.49L175.337 146.453L175.584 149.633C176.019 148.513 176.521 147.604 177.09 146.908C177.656 146.192 178.229 145.621 178.808 145.197C179.409 144.77 180.003 144.47 180.591 144.296C181.176 144.102 181.707 143.976 182.183 143.921C183.466 143.77 184.573 144.092 185.505 144.885C186.437 145.677 187.228 146.791 187.878 148.225C188.547 149.636 189.086 151.282 189.495 153.164C189.904 155.046 190.229 157.011 190.469 159.06C190.643 160.55 190.779 162.065 190.875 163.606C190.992 165.144 191.087 166.665 191.158 168.166C191.247 169.645 191.311 171.085 191.349 172.486C191.405 173.864 191.461 175.147 191.516 176.336L184.266 177.563ZM210.45 142.152C210.064 144.945 209.727 147.712 209.44 150.451C209.171 153.168 208.923 155.892 208.698 158.624C208.491 161.333 208.295 164.052 208.111 166.779C207.927 169.506 207.738 172.276 207.543 175.089L200.442 175.983C199.791 173.291 199.061 170.639 198.252 168.028C197.443 165.417 196.605 162.83 195.739 160.268C194.87 157.684 193.991 155.102 193.101 152.522C192.212 149.941 191.37 147.323 190.577 144.668L198.019 143.734C198.312 145.524 198.672 147.339 199.097 149.177C199.519 150.994 199.965 152.83 200.434 154.684C200.923 156.535 201.414 158.397 201.906 160.269C202.395 162.12 202.863 163.964 203.309 165.8C203.339 163.908 203.345 161.988 203.326 160.04C203.308 158.091 203.279 156.144 203.24 154.198C203.201 152.251 203.163 150.316 203.126 148.39C203.089 146.465 203.069 144.59 203.065 142.765L210.45 142.152ZM233.354 171.154C231.507 172.041 229.799 172.682 228.23 173.075C226.682 173.467 225.401 173.721 224.387 173.84C223.125 173.988 221.988 173.869 220.978 173.484C219.968 173.099 219.063 172.534 218.263 171.789C217.483 171.041 216.803 170.156 216.221 169.133C215.638 168.09 215.141 166.984 214.732 165.815C214.322 164.646 213.984 163.459 213.717 162.253C213.468 161.023 213.279 159.86 213.151 158.763C212.831 156.032 212.754 153.493 212.919 151.145C213.082 148.777 213.48 146.706 214.111 144.933C214.743 143.16 215.614 141.736 216.726 140.662C217.835 139.567 219.166 138.929 220.718 138.747C222.001 138.597 223.207 138.781 224.338 139.299C225.468 139.817 226.483 140.694 227.383 141.931C228.283 143.168 229.05 144.788 229.683 146.791C230.334 148.77 230.823 151.156 231.151 153.95C231.243 154.736 231.315 155.535 231.368 156.347C231.442 157.156 231.489 158 231.508 158.879L220.691 161.625C220.863 162.381 221.072 163.09 221.318 163.754C221.584 164.415 221.893 164.997 222.246 165.501C222.617 165.982 223.028 166.354 223.478 166.616C223.928 166.878 224.453 166.973 225.053 166.903C226.171 166.772 227.281 166.579 228.383 166.324C229.484 166.049 230.634 165.746 231.833 165.417L233.354 171.154ZM219.887 156.37L224.926 154.804L224.788 153.625C224.582 151.866 224.289 150.527 223.909 149.606C223.526 148.665 223.153 147.985 222.789 147.566C222.353 147.072 221.893 146.811 221.407 146.784C220.814 146.917 220.371 147.252 220.078 147.79C219.784 148.327 219.59 149 219.496 149.808C219.42 150.593 219.418 151.475 219.491 152.452C219.563 153.429 219.658 154.415 219.774 155.408L219.887 156.37ZM252.691 150.358C252.041 150.539 251.363 150.744 250.655 150.973C250.049 151.17 249.365 151.418 248.603 151.717C247.841 152.016 247.083 152.346 246.328 152.707C246.414 151.649 246.443 150.733 246.415 149.96C246.406 149.164 246.364 148.445 246.288 147.804C246.158 146.686 245.952 145.829 245.673 145.233C245.411 144.613 245.138 144.163 244.854 143.881C244.569 143.6 244.299 143.443 244.043 143.41C243.809 143.375 243.65 143.362 243.567 143.371C242.905 143.449 242.399 143.791 242.051 144.398C241.7 144.985 241.464 145.747 241.343 146.684C241.22 147.6 241.185 148.643 241.238 149.811C241.291 150.979 241.388 152.174 241.531 153.395C241.633 154.264 241.745 155.132 241.868 155.998C241.99 156.865 242.123 157.73 242.266 158.595L244.129 170.742L237.018 172.078C236.434 167.091 235.856 162.607 235.285 158.626C234.732 154.621 234.238 151.207 233.803 148.385C233.291 145.089 232.811 142.156 232.363 139.586L238.43 138.467L239.151 141.938C239.534 140.55 240.043 139.432 240.678 138.581C241.331 137.708 241.997 137.042 242.678 136.585C243.377 136.105 244.02 135.778 244.608 135.604C245.217 135.428 245.676 135.321 245.987 135.285C247.042 135.161 247.941 135.402 248.683 136.008C249.422 136.592 250.04 137.39 250.536 138.402C251.032 139.414 251.416 140.543 251.688 141.791C251.981 143.036 252.196 144.249 252.334 145.428C252.443 146.359 252.517 147.253 252.554 148.108C252.609 148.941 252.655 149.691 252.691 150.358ZM263.339 126.016C263.37 127.712 263.416 129.363 263.479 130.971C263.539 132.558 263.609 134.144 263.69 135.729C264.471 135.596 265.243 135.474 266.007 135.363C266.788 135.23 267.577 135.075 268.375 134.897L268.895 141.223C268.104 141.274 267.295 141.348 266.467 141.445C265.66 141.539 264.863 141.633 264.077 141.725C264.26 144.724 264.478 147.656 264.73 150.521C264.999 153.363 265.304 156.233 265.643 159.129C265.818 160.619 266.004 162.118 266.201 163.626C266.417 165.111 266.635 166.617 266.856 168.143L260.042 169.067C259.666 164.601 259.275 160.19 258.87 155.832C258.462 151.454 257.999 147.051 257.481 142.623C256.699 142.756 255.907 142.891 255.105 143.027C254.301 143.142 253.509 143.277 252.73 143.431L252.182 136.605C252.918 136.623 253.673 136.619 254.446 136.591C255.219 136.564 255.97 136.528 256.699 136.485C256.51 134.871 256.304 133.29 256.081 131.743C255.878 130.194 255.651 128.616 255.4 127.009L263.339 126.016ZM291.395 164.357C289.548 165.245 287.84 165.885 286.271 166.279C284.723 166.67 283.442 166.925 282.428 167.043C281.165 167.191 280.029 167.073 279.019 166.687C278.009 166.302 277.104 165.737 276.304 164.992C275.524 164.244 274.843 163.359 274.262 162.336C273.679 161.293 273.182 160.187 272.772 159.018C272.363 157.85 272.025 156.662 271.758 155.456C271.509 154.226 271.32 153.063 271.192 151.967C270.872 149.235 270.795 146.696 270.96 144.348C271.123 141.98 271.521 139.909 272.152 138.136C272.783 136.363 273.655 134.94 274.767 133.866C275.876 132.771 277.207 132.132 278.759 131.951C280.042 131.801 281.248 131.984 282.379 132.502C283.509 133.02 284.524 133.898 285.424 135.135C286.324 136.372 287.091 137.991 287.724 139.994C288.375 141.973 288.864 144.36 289.191 147.153C289.283 147.939 289.356 148.738 289.409 149.55C289.483 150.36 289.529 151.204 289.548 152.082L278.732 154.828C278.904 155.584 279.113 156.293 279.359 156.957C279.625 157.618 279.934 158.201 280.287 158.705C280.658 159.186 281.069 159.557 281.519 159.819C281.969 160.081 282.494 160.177 283.094 160.106C284.211 159.976 285.322 159.783 286.424 159.528C287.525 159.252 288.674 158.949 289.874 158.62L291.395 164.357ZM277.928 149.573L282.967 148.008L282.829 146.828C282.623 145.069 282.33 143.73 281.95 142.81C281.567 141.869 281.193 141.189 280.83 140.77C280.394 140.275 279.934 140.015 279.448 139.988C278.855 140.12 278.412 140.455 278.119 140.993C277.825 141.531 277.631 142.204 277.537 143.012C277.461 143.797 277.459 144.678 277.532 145.655C277.604 146.633 277.699 147.618 277.815 148.611L277.928 149.573ZM310.732 143.561C310.082 143.742 309.404 143.947 308.696 144.177C308.09 144.374 307.406 144.622 306.644 144.921C305.882 145.22 305.123 145.55 304.369 145.911C304.454 144.852 304.484 143.936 304.456 143.163C304.447 142.367 304.404 141.648 304.329 141.007C304.198 139.89 303.993 139.033 303.714 138.436C303.452 137.816 303.179 137.366 302.895 137.085C302.61 136.803 302.34 136.646 302.084 136.613C301.849 136.578 301.691 136.565 301.608 136.575C300.946 136.652 300.44 136.994 300.092 137.602C299.741 138.188 299.505 138.95 299.384 139.887C299.261 140.803 299.226 141.846 299.278 143.014C299.331 144.183 299.429 145.377 299.572 146.598C299.674 147.467 299.786 148.335 299.909 149.202C300.031 150.068 300.164 150.934 300.307 151.798L302.17 163.945L295.058 165.281C294.474 160.294 293.897 155.81 293.326 151.829C292.773 147.824 292.279 144.411 291.843 141.588C291.332 138.292 290.852 135.359 290.404 132.79L296.471 131.67L297.192 135.141C297.575 133.754 298.084 132.635 298.719 131.784C299.371 130.911 300.038 130.245 300.719 129.788C301.418 129.308 302.061 128.981 302.649 128.807C303.258 128.631 303.717 128.525 304.027 128.488C305.083 128.365 305.981 128.606 306.724 129.211C307.463 129.795 308.081 130.594 308.577 131.605C309.073 132.617 309.457 133.747 309.729 134.994C310.022 136.24 310.237 137.452 310.375 138.631C310.484 139.562 310.557 140.456 310.595 141.312C310.65 142.144 310.696 142.894 310.732 143.561Z" fill="white"/>
</g>
<path fill-rule="evenodd" clip-rule="evenodd" d="M117.796 166.618C119.112 174.237 114.002 181.48 106.382 182.796C98.7629 184.111 91.52 179.001 90.2044 171.382C88.8887 163.763 93.9987 156.52 101.618 155.204C109.238 153.888 116.48 158.998 117.796 166.618ZM102.392 159.688C102.667 159.64 102.949 159.704 103.176 159.864C103.404 160.025 103.558 160.269 103.606 160.544L103.681 160.981C105.999 160.996 108.181 162.359 108.578 164.658C108.626 164.932 108.562 165.214 108.401 165.442C108.241 165.669 107.997 165.824 107.722 165.871C107.448 165.918 107.166 165.855 106.938 165.694C106.711 165.534 106.556 165.289 106.509 165.015C106.347 164.08 105.398 163.222 104.046 163.092L104.872 167.879C107.191 167.894 109.372 169.257 109.769 171.556C110.166 173.854 108.568 175.87 106.389 176.661L106.464 177.099C106.512 177.373 106.448 177.655 106.287 177.883C106.127 178.11 105.883 178.265 105.608 178.312C105.334 178.359 105.052 178.296 104.824 178.135C104.597 177.975 104.442 177.731 104.395 177.456L104.319 177.019C102.001 177.004 99.8192 175.641 99.4223 173.342C99.3749 173.068 99.4385 172.786 99.599 172.558C99.7596 172.331 100.004 172.176 100.278 172.129C100.553 172.081 100.835 172.145 101.062 172.306C101.29 172.466 101.444 172.71 101.492 172.985C101.653 173.92 102.603 174.778 103.955 174.907L103.128 170.121C100.81 170.106 98.6281 168.743 98.2313 166.444C97.8344 164.146 99.4326 162.13 101.612 161.338L101.536 160.901C101.489 160.627 101.552 160.345 101.713 160.117C101.874 159.89 102.118 159.735 102.392 159.688Z" fill="white"/>
<path fill-rule="evenodd" clip-rule="evenodd" d="M285.974 214.796C287.289 222.415 282.18 229.658 274.56 230.974C266.941 232.289 259.698 227.179 258.382 219.56C257.066 211.941 262.176 204.698 269.796 203.382C277.415 202.066 284.658 207.176 285.974 214.796ZM270.57 207.866C270.844 207.818 271.126 207.882 271.354 208.042C271.582 208.203 271.736 208.447 271.783 208.722L271.859 209.159C274.177 209.174 276.359 210.537 276.756 212.836C276.803 213.11 276.74 213.392 276.579 213.62C276.419 213.847 276.174 214.002 275.9 214.049C275.625 214.096 275.343 214.033 275.116 213.872C274.888 213.712 274.734 213.467 274.687 213.193C274.525 212.258 273.576 211.4 272.223 211.27L273.05 216.057C275.368 216.072 277.55 217.435 277.947 219.734C278.344 222.032 276.746 224.048 274.566 224.839L274.642 225.277C274.689 225.551 274.626 225.833 274.465 226.061C274.305 226.288 274.06 226.443 273.786 226.49C273.511 226.537 273.229 226.474 273.002 226.313C272.774 226.153 272.62 225.908 272.573 225.634L272.497 225.197C270.179 225.182 267.997 223.819 267.6 221.52C267.553 221.246 267.616 220.964 267.777 220.736C267.937 220.509 268.182 220.354 268.456 220.307C268.731 220.259 269.013 220.323 269.24 220.484C269.468 220.644 269.622 220.888 269.669 221.163C269.831 222.098 270.78 222.956 272.132 223.085L271.306 218.299C268.988 218.284 266.806 216.921 266.409 214.622C266.012 212.324 267.61 210.307 269.79 209.516L269.714 209.079C269.667 208.805 269.73 208.523 269.891 208.295C270.051 208.068 270.296 207.913 270.57 207.866Z" fill="white"/>
<path fill-rule="evenodd" clip-rule="evenodd" d="M67.9738 35.7958C69.2895 43.4152 64.1795 50.6581 56.5601 51.9737C48.9406 53.2894 41.6978 48.1795 40.3821 40.56C39.0665 32.9406 44.1764 25.6977 51.7959 24.382C59.4153 23.0664 66.6582 28.1763 67.9738 35.7958ZM52.57 28.8657C52.8445 28.8183 53.1265 28.8819 53.354 29.0424C53.5815 29.203 53.736 29.4473 53.7834 29.7217L53.8589 30.1591C56.1772 30.1736 58.359 31.5372 58.7559 33.8356C58.8033 34.1101 58.7397 34.3921 58.5792 34.6196C58.4186 34.8471 58.1743 35.0016 57.8999 35.049C57.6254 35.0964 57.3434 35.0328 57.1159 34.8723C56.8883 34.7117 56.7339 34.4674 56.6865 34.193C56.525 33.2576 55.5756 32.4 54.2234 32.2698L55.05 37.057C57.3682 37.0715 59.5501 38.4352 59.9469 40.7336C60.3438 43.032 58.7456 45.0483 56.5664 45.8394L56.6419 46.2767C56.6893 46.5512 56.6257 46.8332 56.4652 47.0607C56.3047 47.2883 56.0603 47.4427 55.7859 47.4901C55.5115 47.5375 55.2295 47.4739 55.0019 47.3134C54.7744 47.1528 54.6199 46.9085 54.5726 46.6341L54.497 46.1967C52.1788 46.1822 49.9969 44.8185 49.6001 42.5202C49.5527 42.2457 49.6162 41.9637 49.7768 41.7362C49.9373 41.5086 50.1817 41.3542 50.4561 41.3068C50.7305 41.2594 51.0125 41.323 51.24 41.4835C51.4676 41.6441 51.622 41.8884 51.6694 42.1628C51.8309 43.0982 52.7803 43.9558 54.1323 44.0846L53.306 39.2988C50.9877 39.2843 48.8059 37.9206 48.409 35.6222C48.0121 33.3238 49.6104 31.3075 51.7895 30.5164L51.714 30.079C51.6666 29.8046 51.7302 29.5226 51.8907 29.2951C52.0513 29.0675 52.2956 28.9131 52.57 28.8657Z" fill="black"/>
<path fill-rule="evenodd" clip-rule="evenodd" d="M67.9738 35.7958C69.2895 43.4152 64.1795 50.6581 56.5601 51.9737C48.9406 53.2894 41.6978 48.1795 40.3821 40.56C39.0665 32.9406 44.1764 25.6977 51.7959 24.382C59.4153 23.0664 66.6582 28.1763 67.9738 35.7958ZM52.57 28.8657C52.8445 28.8183 53.1265 28.8819 53.354 29.0424C53.5815 29.203 53.736 29.4473 53.7834 29.7217L53.8589 30.1591C56.1772 30.1736 58.359 31.5372 58.7559 33.8356C58.8033 34.1101 58.7397 34.3921 58.5792 34.6196C58.4186 34.8471 58.1743 35.0016 57.8999 35.049C57.6254 35.0964 57.3434 35.0328 57.1159 34.8723C56.8883 34.7117 56.7339 34.4674 56.6865 34.193C56.525 33.2576 55.5756 32.4 54.2234 32.2698L55.05 37.057C57.3682 37.0715 59.5501 38.4352 59.9469 40.7336C60.3438 43.032 58.7456 45.0483 56.5664 45.8394L56.6419 46.2767C56.6893 46.5512 56.6257 46.8332 56.4652 47.0607C56.3047 47.2883 56.0603 47.4427 55.7859 47.4901C55.5115 47.5375 55.2295 47.4739 55.0019 47.3134C54.7744 47.1528 54.6199 46.9085 54.5726 46.6341L54.497 46.1967C52.1788 46.1822 49.9969 44.8185 49.6001 42.5202C49.5527 42.2457 49.6162 41.9637 49.7768 41.7362C49.9373 41.5086 50.1817 41.3542 50.4561 41.3068C50.7305 41.2594 51.0125 41.323 51.24 41.4835C51.4676 41.6441 51.622 41.8884 51.6694 42.1628C51.8309 43.0982 52.7803 43.9558 54.1323 44.0846L53.306 39.2988C50.9877 39.2843 48.8059 37.9206 48.409 35.6222C48.0121 33.3238 49.6104 31.3075 51.7895 30.5164L51.714 30.079C51.6666 29.8046 51.7302 29.5226 51.8907 29.2951C52.0513 29.0675 52.2956 28.9131 52.57 28.8657Z" fill="black"/>
<path fill-rule="evenodd" clip-rule="evenodd" d="M67.9738 35.7958C69.2895 43.4152 64.1795 50.6581 56.5601 51.9737C48.9406 53.2894 41.6978 48.1795 40.3821 40.56C39.0665 32.9406 44.1764 25.6977 51.7959 24.382C59.4153 23.0664 66.6582 28.1763 67.9738 35.7958ZM52.57 28.8657C52.8445 28.8183 53.1265 28.8819 53.354 29.0424C53.5815 29.203 53.736 29.4473 53.7834 29.7217L53.8589 30.1591C56.1772 30.1736 58.359 31.5372 58.7559 33.8356C58.8033 34.1101 58.7397 34.3921 58.5792 34.6196C58.4186 34.8471 58.1743 35.0016 57.8999 35.049C57.6254 35.0964 57.3434 35.0328 57.1159 34.8723C56.8883 34.7117 56.7339 34.4674 56.6865 34.193C56.525 33.2576 55.5756 32.4 54.2234 32.2698L55.05 37.057C57.3682 37.0715 59.5501 38.4352 59.9469 40.7336C60.3438 43.032 58.7456 45.0483 56.5664 45.8394L56.6419 46.2767C56.6893 46.5512 56.6257 46.8332 56.4652 47.0607C56.3047 47.2883 56.0603 47.4427 55.7859 47.4901C55.5115 47.5375 55.2295 47.4739 55.0019 47.3134C54.7744 47.1528 54.6199 46.9085 54.5726 46.6341L54.497 46.1967C52.1788 46.1822 49.9969 44.8185 49.6001 42.5202C49.5527 42.2457 49.6162 41.9637 49.7768 41.7362C49.9373 41.5086 50.1817 41.3542 50.4561 41.3068C50.7305 41.2594 51.0125 41.323 51.24 41.4835C51.4676 41.6441 51.622 41.8884 51.6694 42.1628C51.8309 43.0982 52.7803 43.9558 54.1323 44.0846L53.306 39.2988C50.9877 39.2843 48.8059 37.9206 48.409 35.6222C48.0121 33.3238 49.6104 31.3075 51.7895 30.5164L51.714 30.079C51.6666 29.8046 51.7302 29.5226 51.8907 29.2951C52.0513 29.0675 52.2956 28.9131 52.57 28.8657Z" fill="black"/>
<path fill-rule="evenodd" clip-rule="evenodd" d="M63.9738 211.796C65.2895 219.415 60.1795 226.658 52.5601 227.974C44.9406 229.289 37.6978 224.179 36.3821 216.56C35.0665 208.941 40.1764 201.698 47.7959 200.382C55.4153 199.066 62.6582 204.176 63.9738 211.796ZM48.57 204.866C48.8445 204.818 49.1265 204.882 49.354 205.042C49.5815 205.203 49.736 205.447 49.7834 205.722L49.8589 206.159C52.1772 206.174 54.359 207.537 54.7559 209.836C54.8033 210.11 54.7397 210.392 54.5792 210.62C54.4186 210.847 54.1743 211.002 53.8999 211.049C53.6254 211.096 53.3434 211.033 53.1159 210.872C52.8883 210.712 52.7339 210.467 52.6865 210.193C52.525 209.258 51.5756 208.4 50.2234 208.27L51.05 213.057C53.3682 213.072 55.5501 214.435 55.9469 216.734C56.3438 219.032 54.7456 221.048 52.5664 221.839L52.6419 222.277C52.6893 222.551 52.6257 222.833 52.4652 223.061C52.3047 223.288 52.0603 223.443 51.7859 223.49C51.5115 223.537 51.2295 223.474 51.0019 223.313C50.7744 223.153 50.6199 222.908 50.5726 222.634L50.497 222.197C48.1788 222.182 45.9969 220.819 45.6001 218.52C45.5527 218.246 45.6162 217.964 45.7768 217.736C45.9373 217.509 46.1817 217.354 46.4561 217.307C46.7305 217.259 47.0125 217.323 47.24 217.484C47.4676 217.644 47.622 217.888 47.6694 218.163C47.8309 219.098 48.7803 219.956 50.1323 220.085L49.306 215.299C46.9877 215.284 44.8059 213.921 44.409 211.622C44.0121 209.324 45.6104 207.307 47.7895 206.516L47.714 206.079C47.6666 205.805 47.7302 205.523 47.8907 205.295C48.0513 205.068 48.2956 204.913 48.57 204.866Z" fill="#FF3D00"/>
<path d="M42.7007 125.896C40.0768 126.238 36.8668 125.933 33.5779 124.889C31.749 124.308 30.073 123.556 28.6089 122.694C26.0924 121.21 25.8816 119.387 26.6951 116.824L32.5603 98.3426C33.0966 96.6527 35.249 96.0591 36.7763 96.9593C38.2403 97.8205 39.9163 98.5734 41.7452 99.1538C45.0342 100.198 48.2441 100.502 50.8681 100.161C53.492 99.8187 56.702 100.124 59.9909 101.167C61.8198 101.748 63.4958 102.501 64.9599 103.362C67.4765 104.846 67.6872 106.669 66.8738 109.232L61.0085 127.714C60.4722 129.404 58.3198 129.997 56.7926 129.097C55.3285 128.236 53.6525 127.483 51.8236 126.902C48.5347 125.859 45.3247 125.554 42.7007 125.896Z" stroke="black" stroke-width="1.5" stroke-linecap="round" stroke-linejoin="round"/>
<path d="M35.0894 111.205L35.0845 111.22M58.4865 114.838L58.481 114.855M51.0749 114.39C50.7139 115.527 49.9158 116.475 48.8561 117.024C47.7965 117.573 46.5621 117.679 45.4245 117.317C44.287 116.956 43.3394 116.158 42.7903 115.099C42.2412 114.039 42.1356 112.805 42.4966 111.667C42.8576 110.53 43.6557 109.582 44.7154 109.033C45.775 108.484 47.0094 108.378 48.147 108.739C49.2846 109.1 50.2321 109.898 50.7812 110.958C51.3303 112.018 51.436 113.252 51.0749 114.39Z" stroke="black" stroke-width="1.5" stroke-linecap="round" stroke-linejoin="round"/>
<path d="M209.444 235.076C207.064 236.232 203.923 236.961 200.473 237.015C198.555 237.045 196.726 236.862 195.065 236.51C192.207 235.901 191.429 234.239 191.387 231.55L191.087 212.163C191.059 210.39 192.912 209.144 194.646 209.513C196.308 209.866 198.136 210.048 200.055 210.018C203.505 209.965 206.646 209.235 209.026 208.079C211.406 206.922 214.547 206.193 217.997 206.14C219.915 206.11 221.744 206.292 223.405 206.644C226.263 207.254 227.041 208.916 227.083 211.605L227.383 230.992C227.411 232.765 225.558 234.01 223.824 233.641C222.162 233.289 220.334 233.107 218.415 233.136C214.965 233.19 211.824 233.919 209.444 235.076Z" stroke="black" stroke-width="1.5" stroke-linecap="round" stroke-linejoin="round"/>
<path d="M197.565 223.558L197.566 223.574M220.907 219.581L220.907 219.599M213.736 221.507C213.754 222.7 213.298 223.852 212.467 224.709C211.636 225.566 210.499 226.058 209.306 226.076C208.113 226.095 206.961 225.639 206.104 224.808C205.247 223.977 204.755 222.84 204.737 221.647C204.718 220.453 205.174 219.301 206.005 218.445C206.836 217.588 207.973 217.096 209.166 217.077C210.36 217.059 211.512 217.515 212.368 218.346C213.225 219.177 213.717 220.314 213.736 221.507Z" stroke="black" stroke-width="1.5" stroke-linecap="round" stroke-linejoin="round"/>
<path d="M378.608 74.2341L386.628 80.9843L373.475 83.6598L378.608 74.2341Z" fill="#FAFF00"/>
<path d="M378.608 74.2341L386.628 80.9843L373.475 83.6598L378.608 74.2341Z" fill="#FAFF00"/>
<path d="M351.257 35.357L347.176 45.4892L340.455 34.699L351.257 35.357Z" fill="#FAFF00"/>
<path d="M351.257 35.357L347.176 45.4892L340.455 34.699L351.257 35.357Z" fill="#FAFF00"/>
<path d="M383.365 58.8397L394.567 57.2598L387.704 68.069L383.365 58.8397Z" fill="#FAFF00"/>
<path d="M383.365 58.8397L394.567 57.2598L387.704 68.069L383.365 58.8397Z" fill="#FAFF00"/>
<path d="M345.015 78.6941L342.798 89.3541L334.227 79.9841L345.015 78.6941Z" fill="#FAFF00"/>
<path d="M345.015 78.6941L342.798 89.3541L334.227 79.9841L345.015 78.6941Z" fill="#FAFF00"/>
<path d="M332.753 90.1285L325.796 98.5958L322.74 86.1926L332.753 90.1285Z" fill="#FF0000"/>
<path d="M313.372 89.4873L304 95.1385L305.377 82.343L313.372 89.4873Z" fill="#FF0000"/>
<path d="M404.46 79.1785L396.236 72.6367L409.327 69.647L404.46 79.1785Z" fill="#00D1FF"/>
<path d="M361.625 69.0828L360.906 79.9146L351.088 71.8606L361.625 69.0828Z" fill="#24FF00"/>
<path d="M343.325 72.6608L334.051 67.2526L345.909 62.0754L343.325 72.6608Z" fill="#24FF00"/>
<path d="M365.406 52.2478L354.68 50.9144L363.699 41.5791L365.406 52.2478Z" fill="#FF0000"/>
<path d="M318.945 72.9617L313.178 63.9094L325.98 64.5605L318.945 72.9617Z" fill="#FF0000"/>
<path d="M389.361 45.6933L381.172 39.1168L394.273 36.1792L389.361 45.6933Z" fill="#00D1FF"/>
<path d="M330.801 49.6029L341.162 47.8477L334.648 59.5893L330.801 49.6029Z" fill="#00D1FF"/>
<path d="M365.811 60.7188L376.175 59.0139L369.614 70.7278L365.811 60.7188Z" fill="#00D1FF"/>
<path d="M344.69 30.7624L334.922 26.2762L346.256 20L344.69 30.7624Z" fill="#FF0000"/>
<path d="M395.497 56.6394L394.523 47.1062L405.187 51.2591L395.497 56.6394Z" fill="#FF0000"/>
<path d="M352.861 88.2287L363.395 87.1072L357.79 96.9703L352.861 88.2287Z" fill="#00D1FF"/>
<path d="M368.385 91.5652L377.397 95.0323L368.926 102.604L368.385 91.5652Z" fill="#FF0000"/>
</g>
</g>
</g>
<defs>
<filter id="filter0_d_645_294" x="114.152" y="110.563" width="210.057" height="89.427" filterUnits="userSpaceOnUse" color-interpolation-filters="sRGB">
<feFlood flood-opacity="0" result="BackgroundImageFix"/>
<feColorMatrix in="SourceAlpha" type="matrix" values="0 0 0 0 0 0 0 0 0 0 0 0 0 0 0 0 0 0 127 0" result="hardAlpha"/>
<feOffset dy="4"/>
<feGaussianBlur stdDeviation="5.45"/>
<feComposite in2="hardAlpha" operator="out"/>
<feColorMatrix type="matrix" values="0 0 0 0 0 0 0 0 0 0 0 0 0 0 0 0 0 0 0.25 0"/>
<feBlend mode="normal" in2="BackgroundImageFix" result="effect1_dropShadow_645_294"/>
<feBlend mode="normal" in="SourceGraphic" in2="effect1_dropShadow_645_294" result="shape"/>
</filter>
<clipPath id="clip0_645_294">
<rect width="400" height="249" rx="22" fill="white"/>
</clipPath>
<clipPath id="clip1_645_294">
<rect width="400" height="249" fill="white"/>
</clipPath>
<clipPath id="clip2_645_294">
<rect width="400" height="400" fill="white"/>
</clipPath>
</defs>
</svg>
