<svg width="40" height="40" viewBox="0 0 40 40" fill="none" xmlns="http://www.w3.org/2000/svg">
<path d="M25 1.77734H40V39.2773H0V0L25 25V1.77734ZM2.5 36.7773H33.2227L2.5 6.05469V36.7773ZM34.2773 34.2773L40 39.2773L37.5 37.093V4.27734H27.5V6.77734H32.5V9.27734H27.5V11.7773H32.5V14.2773H27.5V16.7773H35V19.2773H27.5V21.7773H32.5V24.2773H27.5V26.7773H32.5V29.2773H29.2773L31.7773 31.7773H35V34.2773H34.2773ZM7.5 20L19.2773 31.7773H7.5V20ZM10 26.0547V29.2773H13.2227L10 26.0547Z" fill="#FF004D"/>
</svg>
